<?xml version="1.0" encoding="UTF-8"?>
<svg width="4e3" height="700" version="1.1" viewBox="0 0 4e3 700" xml:space="preserve" xmlns="http://www.w3.org/2000/svg" xmlns:cc="http://creativecommons.org/ns#" xmlns:dc="http://purl.org/dc/elements/1.1/" xmlns:osb="http://www.openswatchbook.org/uri/2009/osb" xmlns:rdf="http://www.w3.org/1999/02/22-rdf-syntax-ns#"><metadata><rdf:RDF><cc:Work rdf:about=""><dc:format>image/svg+xml</dc:format><dc:type rdf:resource="http://purl.org/dc/dcmitype/StillImage"/><dc:title/></cc:Work></rdf:RDF></metadata>
  <desc>
    Flying Bird Animation
    From 8 frame uploads by Firkin https://openclipart.org/user-detail/Firkin 
      https://openclipart.org/detail/239736/flying-bird-22-frame-1
      https://openclipart.org/detail/239737/flying-bird-22-frame-2
      https://openclipart.org/detail/239738/flying-bird-22-frame-3
      https://openclipart.org/detail/239739/flying-bird-22-frame-4
      https://openclipart.org/detail/239740/flying-bird-22-frame-5
      https://openclipart.org/detail/239741/flying-bird-22-frame-6
      https://openclipart.org/detail/239742/flying-bird-22-frame-7
      https://openclipart.org/detail/239743/flying-bird-22-frame-8
    Appears original work from:
      http://opengameart.org/content/game-character-blue-flappy-bird-sprite-sheets
    Animation by
    Jay Nick
    STEAMcoded.org
  </desc>
  <script type="application/x-javascript"><![CDATA[
    var FlyingBird = new function()
    {
      window.addEventListener("load",init);
      var frame = 0;
      function init()
      {
        setTimeout(startAnimation,1000);
      }
      function startAnimation()
      {
        setInterval(DisplayNextFrame,125);
        document.documentElement.setAttribute("viewBox","0 0 927 633");
        document.getElementById("sprites").setAttribute("style","clip-path:url(#cp1);");
      }
      function DisplayNextFrame()
      {
        document.documentElement.setAttribute("viewBox",(frame%4)*927+" "+Math.floor(frame/4)*633+" 927 633");
        document.getElementById("cp").setAttribute("x",(frame%4)*927);
        document.getElementById("cp").setAttribute("y",Math.floor(frame/4)*633);
        frame++;
        if(frame>7) frame=0;
      }
    }();
  ]]>
  </script>
  <g id="sprites" transform="translate(0 67)">
  <g transform="matrix(1.0787 0 0 1.1059 .0067584 -53.948)">
    <path d="m592.43 5.98c22.68-4.67 46.21 14.55 47.5 37.49 1.63 15-3.2 29.82-10.85 42.55 31.68 11.38 55.71 39.93 63.36 72.47 5.84 17.81-0.21 37.71 3.65 55.24 75.17 40.07 151.56 78.26 226.22 119.13-75.77 0.34-151.53 0.02-227.3 0.15-0.03 16.33-0.06 32.65 0 48.98 46.1 0.2 92.22-0.34 138.32 0.25-47.38 26.07-96.34 50.36-144.14 75.99-12.55 36.44-47.33 63.53-85.48 67.66-72.13 0.44-144.28-0.31-216.41 0.35-7.35 0.38-14.7 0.79-22.04 1-24.75-0.4-49.5-0.25-74.24-0.19-7.92-0.09-15.82-0.04-23.73-0.23-51.14-0.56-97.31-42.99-101.17-94.18-0.39-35.26 0.09-70.53-0.17-105.79-28.01 24.03-67.49 44.22-104.55 29.72-14.27-7.09-31.81-20.28-27.56-38.27 14.85-19.23 42.38-18.46 64.32-23-25.01-7.14-49.79-19.63-65.79-40.68-14.21-19.21-21.01-47.68-7.64-68.85 11.83-11.17 30.42-3.46 42.99 2.53 36.11 18.69 68.04 44.53 97.88 71.92 0.9-25.09 0.21-50.2 0.34-75.31-1.98-29.93 12.6-59.04 33.88-79.43-1.78-26.1 7.66-56.38 29.85-71.6 9.45 17.58 15.84 50.5 41.96 45.04 5.05-16.77 12.38-35.7 28.04-45.04 5.93 16.3 14.85 31.41 25.67 44.93 75.61 0.37 151.22 0.21 226.82 0.08-18.8-8.79-37.91-17.68-53.92-31.11-6-4.62-8.7-15.39-1-19.61 30.96-18.52 71.58-5.1 94.76 19.91-4.06-12.78-13.45-32.98 0.43-42.1m-298.45 66.06c-0.65 2.31-1.29 4.61-1.94 6.92h4.92c-0.65-2.31-1.3-4.61-1.94-6.92h-1.04m-69.61 0.42c-11.26 27.32 0.6 56.75 14.61 80.56 21.49 34.55 52.03 62.32 84.04 86.96-43.38-11.41-82.27-39.13-107.33-76.31-10.07 8.82-11.04 24.15-4.73 35.41 12.4 22.64 35.99 35.52 57 48.94 26.82 14.72 54.6 27.78 83.29 38.38-43.02-0.41-86.62-13.74-122.49-38.02-2.69 27.85 11.83 56 36.45 69.4 30.35 15.88 65.51 20.62 99.37 20.44-37.49 6.02-79.78 5.04-115.12-11.69-36.75-18.13-45.09-63.29-40.71-100.26-5.93-5.85-11.22-12.31-15.16-19.66-1.38 52.71-0.26 105.61-0.52 158.39-0.08 21.55-0.27 43.11 0.05 64.66 2.31 34.17 30.76 63.67 64.23 69.19 88.58 0.32 177.18 0.12 265.76 0.09 25.22 0.1 50.44 0.1 75.67 0.06 38.93-2.28 72.22-39.88 69.29-78.91-0.19-78.66 0.03-157.32-0.11-235.98 2.41-40.19-32.37-76.47-71.97-78.19-105.06 0.27-210.12-0.15-315.17 0.21 12.43 13.28 26.74 24.56 39.93 37.05l0.94-0.02-0.94 0.02c55.41 46.29 118.75 104.6 116.59 182.94-4.49-37.12-25.83-69.81-50.67-96.79-39.07-41.76-87.6-72.85-129.4-111.6-13.55-12.94-25.94-27.67-32.9-45.27m-18.18 66.53c-2.82 3.2-4.42 7.22-6.28 11.01 2.86-2.72 11.45-7.33 6.28-11.01m488.92 94.95c-0.06 4.29-0.09 8.59-0.07 12.9-0.15 8-0.09 16.01 0.08 24.02-0.33 14.71-0.07 29.42-0.11 44.13 51.41-0.44 102.88 0.92 154.25-0.67-51.62-26.35-102.7-53.69-154.15-80.38m-0.11 164.08c-0.01 1.66-0.01 3.33-0.01 5.01 0.03 3.02-0.02 5.99 0.06 9.05-0.1 8.42-0.38 16.83-0.77 25.25 24.8-12.93 49.51-25.99 74.33-38.86-24.5-1.19-49.08-0.13-73.61-0.45z"/>
    <path d="m293.98 72.04h1.04c0.64 2.31 1.29 4.61 1.94 6.92h-4.92c0.65-2.31 1.29-4.61 1.94-6.92z" fill="#00adee"/>
    <path d="m224.37 72.46c6.96 17.6 19.35 32.33 32.9 45.27 41.8 38.75 90.33 69.84 129.4 111.6 24.84 26.98 46.18 59.67 50.67 96.79 2.16-78.34-61.18-136.65-116.59-182.94l0.94-0.02c91.7-0.31 183.42-0.17 275.13-0.09 28.88 0.22 55.19 17.73 71.14 41.04 0.14 78.66-0.08 157.32 0.11 235.98 2.93 39.03-30.36 76.63-69.29 78.91-25.23 0.04-50.45 0.04-75.67-0.06-22.57-37.43-60.21-62.07-98.12-81.94-71.8-35.1-152.1-52.57-231.92-52 0.26-52.78-0.86-105.68 0.52-158.39 3.94 7.35 9.23 13.81 15.16 19.66-4.38 36.97 3.96 82.13 40.71 100.26 35.34 16.73 77.63 17.71 115.12 11.69-33.86 0.18-69.02-4.56-99.37-20.44-24.62-13.4-39.14-41.55-36.45-69.4 35.87 24.28 79.47 37.61 122.49 38.02-28.69-10.6-56.47-23.66-83.29-38.38-21.01-13.42-44.6-26.3-57-48.94-6.31-11.26-5.34-26.59 4.73-35.41 25.06 37.18 63.95 64.9 107.33 76.31-32.01-24.64-62.55-52.41-84.04-86.96-14.01-23.81-25.87-53.24-14.61-80.56m279.66 184.57c-33.26 23.7-41.83 73.89-22.03 108.96 15.21 28.45 47.4 47.42 79.84 45.1 41.77 0 80.44-35.57 82.88-77.38 14.08-46.46-20.81-98.64-68.81-103.77-26.61-2.42-53.91 7.05-71.88 27.09m-33.99 141.46c-10.82 1.26-13.37 15.23-5.77 22.21 14.83 16.16 39.09 26.33 60.89 20.63 9.92-2.43 9.59-15.72 3.5-22-14.66-15.64-37.27-24.06-58.62-20.84z" fill="#00adee"/>
    <path d="m280.82 106.13c105.05-0.36 210.11 0.06 315.17-0.21 39.6 1.72 74.38 38 71.97 78.19-15.95-23.31-42.26-40.82-71.14-41.04-91.71-0.08-183.43-0.22-275.13 0.09l-0.94 0.02c-13.19-12.49-27.5-23.77-39.93-37.05z" fill="#84d9f4"/>
    <path d="m206.19 138.99c5.17 3.68-3.42 8.29-6.28 11.01 1.86-3.79 3.46-7.81 6.28-11.01z" fill="#5890a2"/>
    <path d="m504.03 257.03c17.97-20.04 45.27-29.51 71.88-27.09 48 5.13 82.89 57.31 68.81 103.77-8.2 26.02-28.68 47.9-54.87 56.17-31.86 9.91-69.1-1.78-89.18-28.54-23.64-30.03-22.43-75.84 3.36-104.31m25.37-1.98-0.18 0.67c-25.66 16.06-38.12 50.95-26.09 79.23 13.75 40.14 67.69 56.67 101.26 30.62l-0.93-0.11c25.02-15.16 35.76-49.79 24.9-76.91-13.04-39.12-64.83-56.65-98.96-33.5z"/>
    <path d="m695.11 233.94c51.45 26.69 102.53 54.03 154.15 80.38-51.37 1.59-102.84 0.23-154.25 0.67 0.04-14.71-0.22-29.42 0.11-44.13 38.29 9.57 75.86 21.8 113.94 32.12-37.95-18.81-75.82-37.81-114.02-56.14-0.02-4.31 0.01-8.61 0.07-12.9z" fill="#f6921e"/>
    <path d="m529.4 255.05c34.13-23.15 85.92-5.62 98.96 33.5 10.86 27.12 0.12 61.75-24.9 76.91-39.5 4.48-79.15-26.88-81.39-66.9-2.15-14.92 2.53-29.01 7.15-42.84l0.18-0.67m33.59 75.88c13.52 21.84 51.77 4.28 42.87-20.39-2.78 11.34-20.57 11.34-22.6-0.13-2.61-7.6 4.57-12.2 10.08-15.52-21.82-10.96-45.1 16.77-30.35 36.04z" fill="#fff"/>
    <path d="m695.04 246.84c38.2 18.33 76.07 37.33 114.02 56.14-38.08-10.32-75.65-22.55-113.94-32.12-0.17-8.01-0.23-16.02-0.08-24.02z" fill="#fff"/>
    <path d="m503.13 334.95c-12.03-28.28 0.43-63.17 26.09-79.23-4.62 13.83-9.3 27.92-7.15 42.84 2.24 40.02 41.89 71.38 81.39 66.9l0.93 0.11c-33.57 26.05-87.51 9.52-101.26-30.62z" fill="#d0d2d3"/>
    <path d="m482 365.99c-19.8-35.07-11.23-85.26 22.03-108.96-25.79 28.47-27 74.28-3.36 104.31 20.08 26.76 57.32 38.45 89.18 28.54 26.19-8.27 46.67-30.15 54.87-56.17-2.44 41.81-41.11 77.38-82.88 77.38-32.44 2.32-64.63-16.65-79.84-45.1z" fill="#0594c1"/>
    <path d="m562.99 330.93c-14.75-19.27 8.53-47 30.35-36.04-5.51 3.32-12.69 7.92-10.08 15.52 2.03 11.47 19.82 11.47 22.6 0.13 8.9 24.67-29.35 42.23-42.87 20.39z"/>
    <path d="m193.07 365c79.82-0.57 160.12 16.9 231.92 52 37.91 19.87 75.55 44.51 98.12 81.94-88.58 0.03-177.18 0.23-265.76-0.09-33.47-5.52-61.92-35.02-64.23-69.19-0.32-21.55-0.13-43.11-0.05-64.66z" fill="#fff"/>
    <path d="m470.04 398.49c21.35-3.22 43.96 5.2 58.62 20.84 6.09 6.28 6.42 19.57-3.5 22-21.8 5.7-46.06-4.47-60.89-20.63-7.6-6.98-5.05-20.95 5.77-22.21z"/>
    <path d="m695 398.02c24.53 0.32 49.11-0.74 73.61 0.45-24.82 12.87-49.53 25.93-74.33 38.86 0.39-8.42 0.67-16.83 0.77-25.25 16.91-2.06 33.53-5.83 50.3-8.74-16.78-0.62-33.57-0.32-50.36-0.31 0-1.68 0-3.35 0.01-5.01z" fill="#f6921e"/>
    <path d="m694.99 403.03c16.79-0.01 33.58-0.31 50.36 0.31-16.77 2.91-33.39 6.68-50.3 8.74-0.08-3.06-0.03-6.03-0.06-9.05z" fill="#fff"/>
    <path d="m365.26 527.24c7.34-0.21 14.69-0.62 22.04-1-4.21 16.52-25.19 28.12-19.01 45.65 3.95 18.61-7.67 35.99-21.31 47.41-3.97-4.9-7.33-10.26-11.04-15.33 8.13-7.87 15.85-17.79 14-29.96-13.29 7.07-26.53 15.28-41.55 18.02-1.83-5.81-3.67-11.67-4.44-17.73 25.17-7.47 50.28-22.16 61.31-47.06z" fill="#f6921e"/>
    <path d="m266.33 526.79 0.96 0.03c7.91 0.19 15.81 0.14 23.73 0.23-5.98 12.59-17.06 21.96-25.79 32.28 5.73 23.87-6.59 51.45-29.69 60.72-2.54-6.08-5.93-11.74-8.51-17.79 9.93-6.79 19.79-17.01 17.98-30.19-15.14 6.85-31.09 12.5-47.78 13.82-0.26-6.94-1.12-13.8-2.06-20.67 27.37-2.41 54.93-15.79 71.16-38.43z" fill="#f6921e"/>
  </g>
  <g transform="matrix(1.0787 0 0 1.1059 1e3 -60.583)">
    <path d="m590.75 6.46c23.01-6.25 47.93 13.53 49.18 37.02 1.61 14.99-3.19 29.82-10.85 42.53 40.86 14.6 68.67 57.91 65.98 101.01 1.14 8.56-2.46 18.86 1.05 26.67 75.13 40.14 151.52 78.3 226.21 119.14-75.77 0.4-151.54 0.04-227.31 0.18-0.03 16.32-0.05 32.65 0 48.98 46.12 0.24 92.25-0.41 138.36 0.3-47.51 25.99-96.36 50.31-144.16 75.97-12.62 36.4-47.34 63.52-85.51 67.62-72.13 0.47-144.28-0.31-216.4 0.37-7.36 0.38-14.7 0.79-22.05 1-24.74-0.4-49.48-0.29-74.21-0.17-7.93-0.1-15.85-0.05-23.76-0.26-51.17-0.64-97.31-42.97-101.15-94.2-0.44-35.25 0.12-70.52-0.21-105.77-27.59 23.72-65.58 43.14-102.47 30.68-15.07-7.04-33.82-20.33-29.62-39.21 14.86-19.35 42.5-18.35 64.44-23.16-22.81-5.99-44.58-17.32-61.02-34.41-17.58-19.61-27.23-51.36-12.52-74.97 10.43-10.19 27.26-4.62 38.88 0.63 38.17 18.22 70.72 46.02 102.32 73.7 0.34-29.94-0.27-59.88 0.22-89.82 5.43-47.46 46.52-87.73 94.32-91.05 97.22-0.65 194.46 0.08 291.68-0.35-18.79-8.79-37.92-17.67-53.9-31.12-7.14-5.12-8.22-17.3 0.84-20.74 31.02-16.75 70.11-3.49 92.91 21.07-4.42-13.06-11.65-30.18-1.25-41.64m-397.69 177.62c-0.19 10.85-0.14 21.72 0.16 32.57 62.6 29.74 135.8 24.43 198.04 55.1 22.44 10.16 41.06 29.97 46.74 54.26-23.28-35.52-64.41-52.74-105.34-56.68-39.77-4.36-79.58-10.49-117.52-23.42 7.34 14.44 23.01 21.26 36.75 28.2 27.7 11.54 56.96 18.97 86.58 23.51-44.34 2.6-91.7-3.65-129.52-28.58 6.66 12.42 20.23 18.72 32.32 24.7 35.64 14.36 74.4 18.71 112.42 21.37l0.15 0.69c-44.78 4.79-92.2 4.34-133.87-14.81 17.19 21.72 46.57 25.36 72.07 30 25.45 1.39 50.77 4.84 76.27 5.45-32 6.35-65 7.63-97.41 3.67-22.49-3.83-47.34-8.87-62.81-27.2-8.01-7.69-5.63-20.83-14.71-27.6-0.95 26.54-0.16 53.13-0.31 79.69-0.06 21.54-0.3 43.1 0.06 64.65 2.37 34.12 30.74 63.74 64.24 69.19 88.56 0.33 177.14 0.14 265.71 0.09 25.87 0.02 51.75 0.32 77.62-0.1 38.13-3.35 70.24-40.37 67.37-78.74-0.22-78.67 0.07-157.35-0.14-236.02 2.41-39.89-31.81-75.84-71.03-78.12-109.93 0.08-219.86 0.07-329.79 0.01-40.35 0.29-76.31 37.68-74.05 78.12m502.07 49.84c-0.11 4.3-0.06 8.61-0.08 12.93-0.14 8-0.08 16 0.08 24.01-0.32 14.71-0.09 29.42-0.12 44.14 51.4-0.45 102.87 0.91 154.24-0.68-51.59-26.39-102.73-53.63-154.12-80.4m-0.13 164.09c0 1.67-0.01 3.34-0.01 5.01 0.03 3.03-0.01 6.01 0.07 9.06-0.11 8.42-0.4 16.84-0.75 25.26 24.76-12.98 49.51-25.98 74.31-38.89-24.52-1.14-49.09-0.13-73.62-0.44z"/>
    <path d="m193.06 184.08c-2.26-40.44 33.7-77.83 74.05-78.12 109.93 0.06 219.86 0.07 329.79-0.01 39.22 2.28 73.44 38.23 71.03 78.12-16.56-24.58-44.87-42.08-75.09-40.98-108.29-0.28-216.58 0.1-324.87-0.19-30.16-1.1-58.24 16.84-74.91 41.18z" fill="#84d9f4"/>
    <path d="m193.06 184.08c16.67-24.34 44.75-42.28 74.91-41.18 108.29 0.29 216.58-0.09 324.87 0.19 30.22-1.1 58.53 16.4 75.09 40.98 0.21 78.67-0.08 157.35 0.14 236.02 2.87 38.37-29.24 75.39-67.37 78.74-25.87 0.42-51.75 0.12-77.62 0.1-17.5-29.22-44.87-50.99-73.68-68.32-77.06-45.21-167.44-65.81-256.33-65.61 0.15-26.56-0.64-53.15 0.31-79.69 9.08 6.77 6.7 19.91 14.71 27.6 15.47 18.33 40.32 23.37 62.81 27.2 32.41 3.96 65.41 2.68 97.41-3.67-25.5-0.61-50.82-4.06-76.27-5.45-25.5-4.64-54.88-8.28-72.07-30 41.67 19.15 89.09 19.6 133.87 14.81l-0.15-0.69c-38.02-2.66-76.78-7.01-112.42-21.37-12.09-5.98-25.66-12.28-32.32-24.7 37.82 24.93 85.18 31.18 129.52 28.58-29.62-4.54-58.88-11.97-86.58-23.51-13.74-6.94-29.41-13.76-36.75-28.2 37.94 12.93 77.75 19.06 117.52 23.42 40.93 3.94 82.06 21.16 105.34 56.68-5.68-24.29-24.3-44.1-46.74-54.26-62.24-30.67-135.44-25.36-198.04-55.1-0.3-10.85-0.35-21.72-0.16-32.57m310.96 72.95c-33.25 23.73-41.82 73.89-22.02 108.96 15.21 28.45 47.39 47.42 79.84 45.11 41.77-0.01 80.45-35.57 82.87-77.38 12.61-42.43-14.6-89.95-56.99-101.45-29.7-7.66-63.11 1.79-83.7 24.76m-33.95 141.47c-10.85 1.19-13.38 15.22-5.81 22.19 14.83 16.18 39.08 26.31 60.89 20.65 9.92-2.43 9.59-15.71 3.51-22-14.65-15.64-37.25-24.08-58.59-20.84z" fill="#00adee"/>
    <path d="m504.02 257.03c20.59-22.97 54-32.42 83.7-24.76 42.39 11.5 69.6 59.02 56.99 101.45-12.58 44.38-64.82 73.19-108.5 53.99-52.48-17.53-69.65-90.82-32.19-130.68m25.37-1.99-0.18 0.67c-40.61 23.7-39.85 89 0.98 112.1 21.79 14.72 53.07 13.96 73.61-2.52 24.75-15.28 35.37-49.73 24.56-76.75-13.05-39.11-64.82-56.62-98.97-33.5z"/>
    <path d="m695.13 233.92c51.39 26.77 102.53 54.01 154.12 80.4-51.37 1.59-102.84 0.23-154.24 0.68 0.03-14.72-0.2-29.43 0.12-44.14 38.28 9.56 75.85 21.82 113.94 32.11-37.97-18.78-75.81-37.81-114.02-56.12 0.02-4.32-0.03-8.63 0.08-12.93z" fill="#f6921e"/>
    <path d="m529.39 255.04c34.15-23.12 85.92-5.61 98.97 33.5 10.81 27.02 0.19 61.47-24.56 76.75-39.61 4.99-79.49-26.66-81.72-66.74-2.12-14.9 2.5-29.02 7.13-42.84l0.18-0.67m33.59 75.88c13.56 21.81 51.66 4.37 42.95-20.38-2.89 11.28-20.61 11.38-22.67-0.13-2.61-7.61 4.6-12.16 10.06-15.55-21.84-10.87-45.03 16.76-30.34 36.06z" fill="#fff"/>
    <path d="m695.05 246.85c38.21 18.31 76.05 37.34 114.02 56.12-38.09-10.29-75.66-22.55-113.94-32.11-0.16-8.01-0.22-16.01-0.08-24.01z" fill="#fff"/>
    <path d="m530.19 367.81c-40.83-23.1-41.59-88.4-0.98-112.1-4.63 13.82-9.25 27.94-7.13 42.84 2.23 40.08 42.11 71.73 81.72 66.74-20.54 16.48-51.82 17.24-73.61 2.52z" fill="#d0d2d3"/>
    <path d="m482 365.99c-19.8-35.07-11.23-85.23 22.02-108.96-37.46 39.86-20.29 113.15 32.19 130.68 43.68 19.2 95.92-9.61 108.5-53.99-2.42 41.81-41.1 77.37-82.87 77.38-32.45 2.31-64.63-16.66-79.84-45.11z" fill="#0594c1"/>
    <path d="m562.98 330.92c-14.69-19.3 8.5-46.93 30.34-36.06-5.46 3.39-12.67 7.94-10.06 15.55 2.06 11.51 19.78 11.41 22.67 0.13 8.71 24.75-29.39 42.19-42.95 20.38z"/>
    <path d="m193.07 365c88.89-0.2 179.27 20.4 256.33 65.61 28.81 17.33 56.18 39.1 73.68 68.32-88.57 0.05-177.15 0.24-265.71-0.09-33.5-5.45-61.87-35.07-64.24-69.19-0.36-21.55-0.12-43.11-0.06-64.65z" fill="#fff"/>
    <path d="m470.07 398.5c21.34-3.24 43.94 5.2 58.59 20.84 6.08 6.29 6.41 19.57-3.51 22-21.81 5.66-46.06-4.47-60.89-20.65-7.57-6.97-5.04-21 5.81-22.19z"/>
    <path d="m695 398.01c24.53 0.31 49.1-0.7 73.62 0.44-24.8 12.91-49.55 25.91-74.31 38.89 0.35-8.42 0.64-16.84 0.75-25.26 16.9-2.07 33.51-5.81 50.26-8.75-16.78-0.55-33.56-0.34-50.33-0.31 0-1.67 0.01-3.34 0.01-5.01z" fill="#f6921e"/>
    <path d="m694.99 403.02c16.77-0.03 33.55-0.24 50.33 0.31-16.75 2.94-33.36 6.68-50.26 8.75-0.08-3.05-0.04-6.03-0.07-9.06z" fill="#fff"/>
    <path d="m365.25 527.25c7.35-0.21 14.69-0.62 22.05-1-4.26 16.5-25.12 28.1-19.04 45.65 4.01 18.62-7.66 35.96-21.28 47.41-3.94-4.92-7.35-10.25-11.04-15.34 8.14-7.87 15.83-17.78 13.99-29.96-13.28 7.1-26.54 15.24-41.54 18.04-1.83-5.82-3.62-11.69-4.44-17.75 25.16-7.47 50.27-22.15 61.3-47.05z" fill="#f6921e"/>
    <path d="m266.3 526.79 0.98 0.03c7.91 0.21 15.83 0.16 23.76 0.26-6.48 12.16-16.15 22.38-26.08 31.81 6.4 24.02-6.32 51.74-29.39 61.21-2.6-6.07-5.9-11.79-8.54-17.84 9.94-6.79 19.78-17.01 17.98-30.2-15.14 6.89-31.09 12.47-47.77 13.84-0.37-6.93-1.05-13.82-2.05-20.68 27.44-2.33 54.72-15.93 71.11-38.43z" fill="#f6921e"/>
  </g>
  <g transform="matrix(1.0787 0 0 1.1059 2e3 -65.007)">
    <path d="m589.97 6.76c21.56-6.65 45.54 10.48 49.4 32.2 2.93 16.37-1.77 33.08-10.29 47.05 40.86 14.61 68.67 57.91 65.98 101.02 1.14 8.54-2.48 18.86 1.05 26.64 75.14 40.15 151.49 78.38 226.25 119.12-75.78 0.5-151.57 0.05-227.35 0.21-0.04 16.33-0.04 32.66 0 48.99 46.13 0.24 92.28-0.41 138.41 0.3-47.52 25.94-96.39 50.31-144.2 75.97-12.64 36.41-47.35 63.53-85.54 67.62-55.47 0.46-110.96-0.28-166.43 0.33-11.86 21.87-22.77 45.3-21.64 70.88-21.31-5.5-35.06-24.81-44.68-43.4 6.56-7.94 11.65-16.92 15.16-26.6-6.32-0.01-12.62-0.03-18.93-0.04-8.1 14.47-15.48 29.52-18.99 45.85-1.98 7.66-2.55 15.57-3.53 23.4-0.33 0.23-1 0.68-1.33 0.91-6.43-2.65-12.17-6.78-17.95-10.59-4.9-4.47-9.4-9.36-13.36-14.67-9.54-13.12-16.17-29.15-14.95-45.63-1.62 0.11-4.86 0.35-6.47 0.47-7.76 0.14-15.52 0.22-23.27 0.06-51.17-0.68-97.35-42.98-101.18-94.24-0.46-35.26 0.15-70.52-0.22-105.78-27.56 23.76-65.6 43.16-102.46 30.69-15.08-7.01-33.79-20.32-29.63-39.19 14.82-19.29 42.39-18.43 64.31-23.08-25.01-7.05-49.76-19.61-65.75-40.63-14.32-19.33-21.27-48.38-7.18-69.38 12.87-10.76 31.56-2.25 44.54 4.03 35.43 18.58 66.4 44.68 96.25 70.76 0.21-29.91-0.31-59.82 0.16-89.73 5.43-47.45 46.52-87.78 94.34-91.04 97.2-0.71 194.45 0.1 291.67-0.39-18.81-8.74-37.93-17.66-53.91-31.11-7.16-5.09-8.22-17.3 0.84-20.74 31.02-16.73 70.12-3.49 92.9 21.09-4.45-13-11.04-29.11-2.02-41.35m-396.9 177.27c-0.13 60.32-0.11 120.65 0 180.97-0.16 19.96-0.09 39.92-0.1 59.89-0.32 40.72 38.09 77.7 79.01 74.14-6.11-14.05 2.2-29.45-4.83-43.15-3.01-12.12-4.3-26.19 2.6-37.22 10.48-19.24 31.73-27.87 49.48-38.86l0.8 0.21c21.63-12.15 45.22-23.16 59.81-44.17-10.84 36.12-47.77 53.77-74.89 76.11-11.4 9.22-24.26 21.95-22.5 37.96 19.34-25.1 50.13-38.36 79.58-47.9-20.83 17.28-44.32 32.4-59.98 54.97-9.46 13.08-9.94 32.52 2.27 44.14 8.77-47.36 52.74-75.73 92.52-96.31-30.07 31.77-65.33 64.1-74.34 108.86-1.26 15.16-2.08 31.54 5.24 45.4 8.06-46.66 43.99-80.87 70.94-117.39 25.18-32.42 49.98-73.12 38.43-115.97 12.22 30.26 3.61 64.45-7.22 93.98-12.81 27.56-28.78 53.48-45.26 78.97 46.14 0.75 92.3 0.21 138.46 0.27 24.24 0.12 48.49 0.12 72.74 0.06 40.19-0.25 75.23-38.98 72.25-78.9-0.23-78.67 0.05-157.34-0.14-236.02 2.39-39.9-31.82-75.84-71.05-78.12-109.92 0.09-219.85 0.07-329.77 0.01-40.34 0.29-76.3 37.64-74.05 78.07m502.06 49.86c-0.03 4.32-0.06 8.63-0.08 12.96-0.15 8-0.09 16 0.09 24-0.35 14.71-0.09 29.43-0.13 44.15 51.46-0.23 102.93 0.48 154.38-0.36-51.43-26.9-102.88-53.75-154.26-80.75m-0.13 164.13c-0.01 1.66-0.01 3.33 0 5 0.03 3.03-0.02 6.01 0.07 9.07-0.13 8.42-0.46 16.84-0.73 25.27 24.72-13.06 49.53-25.96 74.29-38.95-24.53-1.02-49.09-0.14-73.63-0.39m-303.04 129.52c-0.83 10.93 1.04 21.72 5.83 31.6 1.49-11.27 5.29-22.03 10.33-32.17-5.4 0.16-10.78 0.35-16.16 0.57z"/>
    <path d="m193.07 184.03c-2.25-40.43 33.71-77.78 74.05-78.07 109.92 0.06 219.85 0.08 329.77-0.01 39.23 2.28 73.44 38.22 71.05 78.12-16.54-24.64-44.93-41.92-75.12-40.98-108.25-0.24-216.5 0.01-324.76-0.12-30.23-1.18-58.26 16.72-74.99 41.06z" fill="#84d9f4"/>
    <path d="m193.07 184.03c16.73-24.34 44.76-42.24 74.99-41.06 108.26 0.13 216.51-0.12 324.76 0.12 30.19-0.94 58.58 16.34 75.12 40.98 0.19 78.68-0.09 157.35 0.14 236.02 2.98 39.92-32.06 78.65-72.25 78.9-24.25 0.06-48.5 0.06-72.74-0.06-21.56-35.74-57-60.05-93.2-79.24 10.83-29.53 19.44-63.72 7.22-93.98 11.55 42.85-13.25 83.55-38.43 115.97-26.95 36.52-62.88 70.73-70.94 117.39-7.32-13.86-6.5-30.24-5.24-45.4 9.01-44.76 44.27-77.09 74.34-108.86-39.78 20.58-83.75 48.95-92.52 96.31-12.21-11.62-11.73-31.06-2.27-44.14 15.66-22.57 39.15-37.69 59.98-54.97-29.45 9.54-60.24 22.8-79.58 47.9-1.76-16.01 11.1-28.74 22.5-37.96 27.12-22.34 64.05-39.99 74.89-76.11-14.59 21.01-38.18 32.02-59.81 44.17l-0.8-0.21c-41.04-10.81-83.8-15.09-126.16-14.8-0.11-60.32-0.13-120.65 0-180.97m310.95 72.99c-48.81 34.39-40.44 118.09 13.04 143.93 50.93 30.69 125.01-7.63 127.64-67.25 7.29-29.36-0.8-63.04-24.42-82.97-31.75-31.06-87.35-26.26-116.26 6.29m-33.77 141.27c-11.35 0.96-12.98 14.81-6.4 21.87 14.59 16.7 39.15 26.63 61.02 21.19 9.93-1.89 10.01-15.1 4.25-21.4-14.37-16.36-37.45-24.06-58.87-21.66z" fill="#00adee"/>
    <path d="m504.02 257.02c28.91-32.55 84.51-37.35 116.26-6.29 23.62 19.93 31.71 53.61 24.42 82.97-12.59 44.71-65.46 73.44-109.22 53.74-52-17.96-68.69-90.75-31.46-130.42m25.38-1.97-0.19 0.67c-25.67 16.08-38.09 50.94-26.09 79.24 13.45 39.63 67.98 57.32 100.66 30.31 32.24-19.49 37.75-68.36 13.31-96.37-20.6-25.5-60.25-31.89-87.69-13.85z"/>
    <path d="m695.13 233.89c51.38 27 102.83 53.85 154.26 80.75-51.45 0.84-102.92 0.13-154.38 0.36 0.04-14.72-0.22-29.44 0.13-44.15 38.27 9.59 75.84 21.83 113.93 32.11-37.97-18.76-75.81-37.8-114.02-56.11 0.02-4.33 0.05-8.64 0.08-12.96z" fill="#f6921e"/>
    <path d="m529.4 255.05c27.44-18.04 67.09-11.65 87.69 13.85 24.44 28.01 18.93 76.88-13.31 96.37-32.82 3.67-66.23-16.39-77.52-47.49-7.9-20.15-4.52-42.38 2.95-62.06l0.19-0.67m29.51 60.25c-1.95 14.27 11.43 27.38 25.66 25.56 14.61-0.64 25.85-16.47 21.5-30.36-3.08 11.65-21.6 11.28-22.95-0.86-2.64-7.97 5.74-10.83 10.06-15.02-14.81-6.24-34.6 3.76-34.27 20.68z" fill="#fff"/>
    <path d="m695.05 246.85c38.21 18.31 76.05 37.35 114.02 56.11-38.09-10.28-75.66-22.52-113.93-32.11-0.18-8-0.24-16-0.09-24z" fill="#fff"/>
    <path d="m503.12 334.96c-12-28.3 0.42-63.16 26.09-79.24-7.47 19.68-10.85 41.91-2.95 62.06 11.29 31.1 44.7 51.16 77.52 47.49-32.68 27.01-87.21 9.32-100.66-30.31z" fill="#d0d2d3"/>
    <path d="m517.06 400.95c-53.48-25.84-61.85-109.54-13.04-143.93-37.23 39.67-20.54 112.46 31.46 130.42 43.76 19.7 96.63-9.03 109.22-53.74-2.63 59.62-76.71 97.94-127.64 67.25z" fill="#0594c1"/>
    <path d="m558.91 315.3c-0.33-16.92 19.46-26.92 34.27-20.68-4.32 4.19-12.7 7.05-10.06 15.02 1.35 12.14 19.87 12.51 22.95 0.86 4.35 13.89-6.89 29.72-21.5 30.36-14.23 1.82-27.61-11.29-25.66-25.56z"/>
    <path d="m193.07 365c42.36-0.29 85.12 3.99 126.16 14.8-17.75 10.99-39 19.62-49.48 38.86-6.9 11.03-5.61 25.1-2.6 37.22 7.03 13.7-1.28 29.1 4.83 43.15-40.92 3.56-79.33-33.42-79.01-74.14 0.01-19.97-0.06-39.93 0.1-59.89z" fill="#fff"/>
    <path d="m470.25 398.29c21.42-2.4 44.5 5.3 58.87 21.66 5.76 6.3 5.68 19.51-4.25 21.4-21.87 5.44-46.43-4.49-61.02-21.19-6.58-7.06-4.95-20.91 6.4-21.87z"/>
    <path d="m695 398.02c24.54 0.25 49.1-0.63 73.63 0.39-24.76 12.99-49.57 25.89-74.29 38.95 0.27-8.43 0.6-16.85 0.73-25.27 16.89-2.08 33.51-5.84 50.27-8.74-16.78-0.57-33.56-0.37-50.34-0.33-0.01-1.67-0.01-3.34 0-5z" fill="#f6921e"/>
    <path d="m695 403.02c16.78-0.04 33.56-0.24 50.34 0.33-16.76 2.9-33.38 6.66-50.27 8.74-0.09-3.06-0.04-6.04-0.07-9.07z" fill="#fff"/>
    <path d="m384.63 498.66c16.48-25.49 32.45-51.41 45.26-78.97 36.2 19.19 71.64 43.5 93.2 79.24-46.16-0.06-92.32 0.48-138.46-0.27z" fill="#fff"/>
    <path d="m266.35 526.83 0.96 0.02c7.75 0.16 15.51 0.08 23.27-0.06-4.8 13.08-17.13 22.04-25.27 32.57 5.56 23.96-6.68 51.3-29.74 60.79-2.66-6.06-5.84-11.85-8.55-17.88 9.95-6.8 19.79-17.01 17.98-30.22-15.11 6.91-31.05 12.47-47.72 13.85-0.96-6.88-0.65-13.86-2.14-20.66 27.49-2.32 54.69-15.98 71.21-38.41z" fill="#f6921e"/>
    <path d="m367.16 527.05c6.31 0.01 12.61 0.03 18.93 0.04-3.51 9.68-8.6 18.66-15.16 26.6-3.62 3.47-6.02 8.17-3.89 13.19 6.86 19.75-4.73 40.21-20.03 52.24-4.45-4.56-7.16-10.49-11.38-15.25 2.37-2.43 4.75-4.91 7.68-6.66 0.33-0.23 1-0.68 1.33-0.91l0.64-0.47c3.33-7.17 5.72-15.16 2.89-22.93 3.51-16.33 10.89-31.38 18.99-45.85z" fill="#f6921e"/>
    <path d="m391.96 527.54c5.38-0.22 10.76-0.41 16.16-0.57-5.04 10.14-8.84 20.9-10.33 32.17-4.79-9.88-6.66-20.67-5.83-31.6z" fill="#00adee"/>
    <path d="m303.87 574.21c2.71-0.76 5.42-1.51 8.13-2.26 3.96 5.31 8.46 10.2 13.36 14.67-5.56 2.13-11.02 4.65-16.97 5.45-1.92-5.84-3.49-11.8-4.52-17.86z" fill="#f6921e"/>
  </g>
  <g transform="matrix(1.0787 0 0 1.1059 3e3 -71.43)">
    <path d="m591.76 6.31c22.71-5.65 46.96 14.07 48.15 37.17 1.63 15-3.17 29.81-10.82 42.53 50.78 17.55 74.71 75.87 65.88 126.34 74.71 41.63 152.38 79.05 227.37 120.45-75.78 0.48-151.56 0.04-227.33 0.21-0.04 16.33-0.05 32.65 0 48.98 46.12 0.24 92.26-0.41 138.38 0.3-47.52 26-96.39 50.27-144.15 75.99-12.7 36.37-47.36 63.53-85.56 67.59-72.12 0.49-144.26-0.3-216.38 0.37-7.35 0.38-14.7 0.79-22.04 1.01-24.03-0.38-48.06-0.28-72.09-0.21-1.34 8.03-2.3 16.12-3.47 24.18-4.24-1.22-8.49-2.49-12.51-4.34-6.41-2.99-12.44-6.75-17.93-11.2-3.57-6.46-8.18-12.35-16.28-12.71-43.11-10.31-75.65-50.99-77-95.1-0.08-33.68 0.17-67.36-0.06-101.03-27.84 23.97-66.85 43.85-103.85 30.05-14.53-7.07-32.42-20.27-28.24-38.55 14.71-19.43 42.43-18.44 64.43-23.19-43.84-10.21-90.09-47.85-78.93-97.71 1.9-18.72 23.55-20.2 37.24-14.01 41.38 17.46 75.8 47.52 109.36 76.68 0.36-29.93-0.3-59.87 0.23-89.8 5.41-47.44 46.51-87.81 94.33-91.03 97.2-0.74 194.44 0.06 291.66-0.39-18.78-8.81-37.94-17.65-53.9-31.14-7.15-5.08-8.21-17.29 0.83-20.72 31.03-16.75 70.12-3.5 92.91 21.07-3.96-12.72-13.09-32.04-0.23-41.79m-398.68 177.7c-0.14 60.33-0.13 120.66 0 180.98 0.12 23.08-0.76 46.21 0.44 69.26 4.18 28.32 25.53 52.58 52.38 61.88-12.36-14.11-20.13-33.2-16.29-52.15 5.32-16.45-6.29-32.91-0.14-49.4 4.7-13.76 18.43-21.44 31.44-25.95 39.27-11.81 84.03-8.52 119.1-32.67-33.46 33.14-84.7 31.95-122.74 57.19-9.06 5.95-10.15 16.94-8.36 26.71 25.5-28.41 64.72-38.46 101.27-42.75-29.31 13.19-59.49 26.49-82.97 49.09-10.36 10.64-20.76 25.22-16.12 41 18.62-36.61 56.81-56.52 95.05-66.06-26.95 18.52-55.14 38.05-72.3 66.65-9.4 13.66-10.75 38.15 3.87 46.63 6.18-46.72 47.21-77.12 84.29-100.43 32.66-20.58 71.17-46.22 75.56-88.25 9.29 31.43-7.97 63.79-32.43 83.06-33.77 29.04-76.38 50.3-99.36 89.99 72.44 0.44 144.88 0.16 217.32 0.14 27.4-0.17 54.84 0.74 82.22-0.44 32.94-5.89 60.08-35.36 62.67-68.69 0.02-81.91 0.08-163.82-0.04-245.73 2.39-39.9-31.82-75.85-71.06-78.11-109.92 0.07-219.83 0.06-329.75 0-40.34 0.28-76.3 37.62-74.05 78.05m502.03 49.92c-0.03 4.3-0.07 8.6-0.06 12.91-0.14 8-0.08 16.01 0.08 24.01-0.32 14.72-0.1 29.43-0.12 44.15 51.4-0.46 102.87 0.93 154.24-0.69-51.61-26.36-102.72-53.65-154.14-80.38m-0.11 164.09c-0.01 1.66-0.01 3.33-0.01 5.01 0.03 3.02-0.01 6 0.08 9.05-0.16 8.43-0.43 16.85-0.75 25.27 24.75-13.01 49.51-25.98 74.3-38.91-24.52-1.09-49.08-0.15-73.62-0.42z"/>
    <path d="m193.08 184.01c-2.25-40.43 33.71-77.77 74.05-78.05 109.92 0.06 219.83 0.07 329.75 0 39.24 2.26 73.45 38.21 71.06 78.11-16.57-24.62-44.89-42.02-75.12-40.98-108.25-0.23-216.5 0.01-324.75-0.12-30.2-1.2-58.27 16.73-74.99 41.04z" fill="#84d9f4"/>
    <path d="m193.08 184.01c16.72-24.31 44.79-42.24 74.99-41.04 108.25 0.13 216.5-0.11 324.75 0.12 30.23-1.04 58.55 16.36 75.12 40.98 0.12 81.91 0.06 163.82 0.04 245.73-2.59 33.33-29.73 62.8-62.67 68.69-27.38 1.18-54.82 0.27-82.22 0.44-26.93-42.83-71.84-71.61-117.96-90.13 24.46-19.27 41.72-51.63 32.43-83.06-4.39 42.03-42.9 67.67-75.56 88.25-37.08 23.31-78.11 53.71-84.29 100.43-14.62-8.48-13.27-32.97-3.87-46.63 17.16-28.6 45.35-48.13 72.3-66.65-38.24 9.54-76.43 29.45-95.05 66.06-4.64-15.78 5.76-30.36 16.12-41 23.48-22.6 53.66-35.9 82.97-49.09-36.55 4.29-75.77 14.34-101.27 42.75-1.79-9.77-0.7-20.76 8.36-26.71 38.04-25.24 89.28-24.05 122.74-57.19-35.07 24.15-79.83 20.86-119.1 32.67-22.53-2.34-45.14-4.51-67.83-3.64-0.13-60.32-0.14-120.65 0-180.98m310.94 73.01c-48.81 34.4-40.44 118.08 13.03 143.93 50.83 30.74 125-7.61 127.66-67.23 12.61-42.43-14.61-89.96-57-101.45-29.7-7.65-63.1 1.8-83.69 24.75m-33.91 141.49c-10.9 1.11-13.4 15.2-5.86 22.17 14.83 16.2 39.06 26.29 60.89 20.68 9.52-2.27 9.86-15.12 3.83-21.28-14.13-16.56-37.49-24.38-58.86-21.57z" fill="#00adee"/>
    <path d="m504.02 257.02c20.59-22.95 53.99-32.4 83.69-24.75 42.39 11.49 69.61 59.02 57 101.45-12.63 44.7-65.45 73.4-109.23 53.72-52-17.97-68.68-90.75-31.46-130.42m25.36-1.99-0.18 0.68c-31.08 18.83-40.41 64.37-18.38 93.46 19.17 30.16 65.03 38.98 92.95 16.11 24.8-15.23 35.37-49.72 24.61-76.74-13.1-39.11-64.82-56.61-99-33.51z"/>
    <path d="m695.11 233.93c51.42 26.73 102.53 54.02 154.14 80.38-51.37 1.62-102.84 0.23-154.24 0.69 0.02-14.72-0.2-29.43 0.12-44.15 38.28 9.58 75.85 21.83 113.94 32.11-37.97-18.78-75.82-37.8-114.02-56.12-0.01-4.31 0.03-8.61 0.06-12.91z" fill="#f6921e"/>
    <path d="m529.38 255.03c34.18-23.1 85.9-5.6 99 33.51 10.76 27.02 0.19 61.51-24.61 76.74-32.81 3.65-66.23-16.4-77.51-47.51-7.89-20.14-4.5-42.37 2.94-62.06l0.18-0.68m33.57 75.88c13.58 21.77 51.61 4.46 43.01-20.34-2.98 11.22-20.6 11.36-22.71-0.16-2.61-7.62 4.66-12.09 10.04-15.59-21.87-10.74-44.93 16.75-30.34 36.09z" fill="#fff"/>
    <path d="m695.05 246.84c38.2 18.32 76.05 37.34 114.02 56.12-38.09-10.28-75.66-22.53-113.94-32.11-0.16-8-0.22-16.01-0.08-24.01z" fill="#fff"/>
    <path d="m510.82 349.17c-22.03-29.09-12.7-74.63 18.38-93.46-7.44 19.69-10.83 41.92-2.94 62.06 11.28 31.11 44.7 51.16 77.51 47.51-27.92 22.87-73.78 14.05-92.95-16.11z" fill="#d0d2d3"/>
    <path d="m517.05 400.95c-53.47-25.85-61.84-109.53-13.03-143.93-37.22 39.67-20.54 112.45 31.46 130.42 43.78 19.68 96.6-9.02 109.23-53.72-2.66 59.62-76.83 97.97-127.66 67.23z" fill="#0594c1"/>
    <path d="m562.95 330.91c-14.59-19.34 8.47-46.83 30.34-36.09-5.38 3.5-12.65 7.97-10.04 15.59 2.11 11.52 19.73 11.38 22.71 0.16 8.6 24.8-29.43 42.11-43.01 20.34z"/>
    <path d="m193.08 364.99c22.69-0.87 45.3 1.3 67.83 3.64-13.01 4.51-26.74 12.19-31.44 25.95-6.15 16.49 5.46 32.95 0.14 49.4-3.84 18.95 3.93 38.04 16.29 52.15-26.85-9.3-48.2-33.56-52.38-61.88-1.2-23.05-0.32-46.18-0.44-69.26z" fill="#fff"/>
    <path d="m470.11 398.51c21.37-2.81 44.73 5.01 58.86 21.57 6.03 6.16 5.69 19.01-3.83 21.28-21.83 5.61-46.06-4.48-60.89-20.68-7.54-6.97-5.04-21.06 5.86-22.17z"/>
    <path d="m695 398.02c24.54 0.27 49.1-0.67 73.62 0.42-24.79 12.93-49.55 25.9-74.3 38.91 0.32-8.42 0.59-16.84 0.75-25.27 16.89-2.1 33.52-5.78 50.26-8.77-16.78-0.49-33.56-0.36-50.34-0.28 0-1.68 0-3.35 0.01-5.01z" fill="#f6921e"/>
    <path d="m694.99 403.03c16.78-0.08 33.56-0.21 50.34 0.28-16.74 2.99-33.37 6.67-50.26 8.77-0.09-3.05-0.05-6.03-0.08-9.05z" fill="#fff"/>
    <path d="m305.77 498.79c22.98-39.69 65.59-60.95 99.36-89.99 46.12 18.52 91.03 47.3 117.96 90.13-72.44 0.02-144.88 0.3-217.32-0.14z" fill="#fff"/>
    <path d="m365.26 527.25c7.34-0.22 14.69-0.63 22.04-1.01-5.06 13.58-16.63 24.58-20.85 37.44 7.64 20.77-2.88 42.7-19.47 55.63-3.91-4.94-7.39-10.2-11.02-15.34 8.12-7.89 15.78-17.77 13.99-29.94-13.31 7.07-26.54 15.21-41.55 18.03-1.9-5.81-3.53-11.72-4.47-17.76 25.18-7.45 50.28-22.15 61.33-47.05z" fill="#f6921e"/>
    <path d="m195.21 565.23c23.96-1.76 46.83-12.95 64.05-29.55 5.49 4.45 11.52 8.21 17.93 11.2-3.97 5.3-13.01 8.37-11.87 15.97 5.35 22.78-8.09 46.98-28.32 57.09-5.13-3.88-6.63-11.98-9.97-17.68 9.94-6.8 19.76-16.99 17.98-30.18-15.15 6.85-31.08 12.46-47.77 13.82-0.47-6.92-1.02-13.82-2.03-20.67z" fill="#f6921e"/>
  </g>
  </g>
<g transform="translate(0 67)" display="none" fill="none" stroke="#000" stroke-width="1.0955"><rect x=".54774" y="-66.452" width="998.91" height="698.9"/><rect x="1000.5" y="-66.452" width="998.91" height="698.9"/><rect x="2000.5" y="-66.452" width="998.91" height="698.9"/><rect x="3000.5" y="-66.452" width="998.91" height="698.9"/></g></svg>
