<svg width="239.39mm" height="162.66mm" version="1.1" viewBox="0 0 239.39 162.66" xmlns="http://www.w3.org/2000/svg"><g transform="matrix(.26458 0 0 .26458 -4.6681 -1.3658)"><path d="m591.76 6.31c22.71-5.65 46.96 14.07 48.15 37.17 1.63 15-3.17 29.81-10.82 42.53 50.78 17.55 74.71 75.87 65.88 126.34 74.71 41.63 152.38 79.05 227.37 120.45-75.78 0.48-151.56 0.04-227.33 0.21-0.04 16.33-0.05 32.65 0 48.98 46.12 0.24 92.26-0.41 138.38 0.3-47.52 26-96.39 50.27-144.15 75.99-12.7 36.37-47.36 63.53-85.56 67.59-72.12 0.49-144.26-0.3-216.38 0.37-7.35 0.38-14.7 0.79-22.04 1.01-24.03-0.38-48.06-0.28-72.09-0.21-1.34 8.03-2.3 16.12-3.47 24.18-4.24-1.22-8.49-2.49-12.51-4.34-6.41-2.99-12.44-6.75-17.93-11.2-3.57-6.46-8.18-12.35-16.28-12.71-43.11-10.31-75.65-50.99-77-95.1-0.08-33.68 0.17-67.36-0.06-101.03-27.84 23.97-66.85 43.85-103.85 30.05-14.53-7.07-32.42-20.27-28.24-38.55 14.71-19.43 42.43-18.44 64.43-23.19-43.84-10.21-90.09-47.85-78.93-97.71 1.9-18.72 23.55-20.2 37.24-14.01 41.38 17.46 75.8 47.52 109.36 76.68 0.36-29.93-0.3-59.87 0.23-89.8 5.41-47.44 46.51-87.81 94.33-91.03 97.2-0.74 194.44 0.06 291.66-0.39-18.78-8.81-37.94-17.65-53.9-31.14-7.15-5.08-8.21-17.29 0.83-20.72 31.03-16.75 70.12-3.5 92.91 21.07-3.96-12.72-13.09-32.04-0.23-41.79m-398.68 177.7c-0.14 60.33-0.13 120.66 0 180.98 0.12 23.08-0.76 46.21 0.44 69.26 4.18 28.32 25.53 52.58 52.38 61.88-12.36-14.11-20.13-33.2-16.29-52.15 5.32-16.45-6.29-32.91-0.14-49.4 4.7-13.76 18.43-21.44 31.44-25.95 39.27-11.81 84.03-8.52 119.1-32.67-33.46 33.14-84.7 31.95-122.74 57.19-9.06 5.95-10.15 16.94-8.36 26.71 25.5-28.41 64.72-38.46 101.27-42.75-29.31 13.19-59.49 26.49-82.97 49.09-10.36 10.64-20.76 25.22-16.12 41 18.62-36.61 56.81-56.52 95.05-66.06-26.95 18.52-55.14 38.05-72.3 66.65-9.4 13.66-10.75 38.15 3.87 46.63 6.18-46.72 47.21-77.12 84.29-100.43 32.66-20.58 71.17-46.22 75.56-88.25 9.29 31.43-7.97 63.79-32.43 83.06-33.77 29.04-76.38 50.3-99.36 89.99 72.44 0.44 144.88 0.16 217.32 0.14 27.4-0.17 54.84 0.74 82.22-0.44 32.94-5.89 60.08-35.36 62.67-68.69 0.02-81.91 0.08-163.82-0.04-245.73 2.39-39.9-31.82-75.85-71.06-78.11-109.92 0.07-219.83 0.06-329.75 0-40.34 0.28-76.3 37.62-74.05 78.05m502.03 49.92c-0.03 4.3-0.07 8.6-0.06 12.91-0.14 8-0.08 16.01 0.08 24.01-0.32 14.72-0.1 29.43-0.12 44.15 51.4-0.46 102.87 0.93 154.24-0.69-51.61-26.36-102.72-53.65-154.14-80.38m-0.11 164.09c-0.01 1.66-0.01 3.33-0.01 5.01 0.03 3.02-0.01 6 0.08 9.05-0.16 8.43-0.43 16.85-0.75 25.27 24.75-13.01 49.51-25.98 74.3-38.91-24.52-1.09-49.08-0.15-73.62-0.42z"/><path d="m193.08 184.01c-2.25-40.43 33.71-77.77 74.05-78.05 109.92 0.06 219.83 0.07 329.75 0 39.24 2.26 73.45 38.21 71.06 78.11-16.57-24.62-44.89-42.02-75.12-40.98-108.25-0.23-216.5 0.01-324.75-0.12-30.2-1.2-58.27 16.73-74.99 41.04z" fill="#84d9f4"/><path d="m193.08 184.01c16.72-24.31 44.79-42.24 74.99-41.04 108.25 0.13 216.5-0.11 324.75 0.12 30.23-1.04 58.55 16.36 75.12 40.98 0.12 81.91 0.06 163.82 0.04 245.73-2.59 33.33-29.73 62.8-62.67 68.69-27.38 1.18-54.82 0.27-82.22 0.44-26.93-42.83-71.84-71.61-117.96-90.13 24.46-19.27 41.72-51.63 32.43-83.06-4.39 42.03-42.9 67.67-75.56 88.25-37.08 23.31-78.11 53.71-84.29 100.43-14.62-8.48-13.27-32.97-3.87-46.63 17.16-28.6 45.35-48.13 72.3-66.65-38.24 9.54-76.43 29.45-95.05 66.06-4.64-15.78 5.76-30.36 16.12-41 23.48-22.6 53.66-35.9 82.97-49.09-36.55 4.29-75.77 14.34-101.27 42.75-1.79-9.77-0.7-20.76 8.36-26.71 38.04-25.24 89.28-24.05 122.74-57.19-35.07 24.15-79.83 20.86-119.1 32.67-22.53-2.34-45.14-4.51-67.83-3.64-0.13-60.32-0.14-120.65 0-180.98m310.94 73.01c-48.81 34.4-40.44 118.08 13.03 143.93 50.83 30.74 125-7.61 127.66-67.23 12.61-42.43-14.61-89.96-57-101.45-29.7-7.65-63.1 1.8-83.69 24.75m-33.91 141.49c-10.9 1.11-13.4 15.2-5.86 22.17 14.83 16.2 39.06 26.29 60.89 20.68 9.52-2.27 9.86-15.12 3.83-21.28-14.13-16.56-37.49-24.38-58.86-21.57z" fill="#00adee"/><path d="m504.02 257.02c20.59-22.95 53.99-32.4 83.69-24.75 42.39 11.49 69.61 59.02 57 101.45-12.63 44.7-65.45 73.4-109.23 53.72-52-17.97-68.68-90.75-31.46-130.42m25.36-1.99-0.18 0.68c-31.08 18.83-40.41 64.37-18.38 93.46 19.17 30.16 65.03 38.98 92.95 16.11 24.8-15.23 35.37-49.72 24.61-76.74-13.1-39.11-64.82-56.61-99-33.51z"/><path d="m695.11 233.93c51.42 26.73 102.53 54.02 154.14 80.38-51.37 1.62-102.84 0.23-154.24 0.69 0.02-14.72-0.2-29.43 0.12-44.15 38.28 9.58 75.85 21.83 113.94 32.11-37.97-18.78-75.82-37.8-114.02-56.12-0.01-4.31 0.03-8.61 0.06-12.91z" fill="#f6921e"/><path d="m529.38 255.03c34.18-23.1 85.9-5.6 99 33.51 10.76 27.02 0.19 61.51-24.61 76.74-32.81 3.65-66.23-16.4-77.51-47.51-7.89-20.14-4.5-42.37 2.94-62.06l0.18-0.68m33.57 75.88c13.58 21.77 51.61 4.46 43.01-20.34-2.98 11.22-20.6 11.36-22.71-0.16-2.61-7.62 4.66-12.09 10.04-15.59-21.87-10.74-44.93 16.75-30.34 36.09z" fill="#fff"/><path d="m695.05 246.84c38.2 18.32 76.05 37.34 114.02 56.12-38.09-10.28-75.66-22.53-113.94-32.11-0.16-8-0.22-16.01-0.08-24.01z" fill="#fff"/><path d="m510.82 349.17c-22.03-29.09-12.7-74.63 18.38-93.46-7.44 19.69-10.83 41.92-2.94 62.06 11.28 31.11 44.7 51.16 77.51 47.51-27.92 22.87-73.78 14.05-92.95-16.11z" fill="#d0d2d3"/><path d="m517.05 400.95c-53.47-25.85-61.84-109.53-13.03-143.93-37.22 39.67-20.54 112.45 31.46 130.42 43.78 19.68 96.6-9.02 109.23-53.72-2.66 59.62-76.83 97.97-127.66 67.23z" fill="#0594c1"/><path d="m562.95 330.91c-14.59-19.34 8.47-46.83 30.34-36.09-5.38 3.5-12.65 7.97-10.04 15.59 2.11 11.52 19.73 11.38 22.71 0.16 8.6 24.8-29.43 42.11-43.01 20.34z"/><path d="m193.08 364.99c22.69-0.87 45.3 1.3 67.83 3.64-13.01 4.51-26.74 12.19-31.44 25.95-6.15 16.49 5.46 32.95 0.14 49.4-3.84 18.95 3.93 38.04 16.29 52.15-26.85-9.3-48.2-33.56-52.38-61.88-1.2-23.05-0.32-46.18-0.44-69.26z" fill="#fff"/><path d="m470.11 398.51c21.37-2.81 44.73 5.01 58.86 21.57 6.03 6.16 5.69 19.01-3.83 21.28-21.83 5.61-46.06-4.48-60.89-20.68-7.54-6.97-5.04-21.06 5.86-22.17z"/><path d="m695 398.02c24.54 0.27 49.1-0.67 73.62 0.42-24.79 12.93-49.55 25.9-74.3 38.91 0.32-8.42 0.59-16.84 0.75-25.27 16.89-2.1 33.52-5.78 50.26-8.77-16.78-0.49-33.56-0.36-50.34-0.28 0-1.68 0-3.35 0.01-5.01z" fill="#f6921e"/><path d="m694.99 403.03c16.78-0.08 33.56-0.21 50.34 0.28-16.74 2.99-33.37 6.67-50.26 8.77-0.09-3.05-0.05-6.03-0.08-9.05z" fill="#fff"/><path d="m305.77 498.79c22.98-39.69 65.59-60.95 99.36-89.99 46.12 18.52 91.03 47.3 117.96 90.13-72.44 0.02-144.88 0.3-217.32-0.14z" fill="#fff"/><path d="m365.26 527.25c7.34-0.22 14.69-0.63 22.04-1.01-5.06 13.58-16.63 24.58-20.85 37.44 7.64 20.77-2.88 42.7-19.47 55.63-3.91-4.94-7.39-10.2-11.02-15.34 8.12-7.89 15.78-17.77 13.99-29.94-13.31 7.07-26.54 15.21-41.55 18.03-1.9-5.81-3.53-11.72-4.47-17.76 25.18-7.45 50.28-22.15 61.33-47.05z" fill="#f6921e"/><path d="m195.21 565.23c23.96-1.76 46.83-12.95 64.05-29.55 5.49 4.45 11.52 8.21 17.93 11.2-3.97 5.3-13.01 8.37-11.87 15.97 5.35 22.78-8.09 46.98-28.32 57.09-5.13-3.88-6.63-11.98-9.97-17.68 9.94-6.8 19.76-16.99 17.98-30.18-15.15 6.85-31.08 12.46-47.77 13.82-0.47-6.92-1.02-13.82-2.03-20.67z" fill="#f6921e"/></g></svg>
