<svg width="239.39mm" height="162.66mm" version="1.1" viewBox="0 0 239.39 162.66" xmlns="http://www.w3.org/2000/svg"><g transform="matrix(.26458 0 0 .26458 -2.1125 .42544)"><path d="m576.19 11.18c19.47-7.75 43.88 2.21 52.06 21.52 8.49 16.56 4.16 35.56-1.21 52.31 41.56 14.41 70.85 57.74 67.89 101.71-0.48 2.69-0.56 6.67 2.53 7.85 74.9 39.35 150.19 78.07 224.83 117.87-75.71 1.34-151.52 0.14-227.27 0.58-0.04 26.32-0.06 52.64 0 78.96 46.1 0.21 92.2-0.3 138.3 0.22-49.18 27.27-100.35 52.17-149.84 79.27-15.56 29.78-46.47 50.71-79.78 54.41-72.71 0.71-145.47-0.8-218.16 0.73-7.42 0.28-14.84 0.46-22.25 0.59-23.38-0.29-46.77-0.26-70.14-0.16-1.36 8.02-2.22 16.11-3.45 24.16-5.69-1.48-11.2-3.68-16.44-6.34-6.23-3.59-12.22-7.76-17.06-13.11-1.21-1.59-3.62-4.77-4.83-6.35-44.85-8.26-81.61-47-85.24-92.78-0.61-32.7 0.44-65.43-0.4-98.13-16.08 18.53-37.8 32.34-61.5 38.81-23.2 6.26-51.88-1.83-64.19-23.48-3.8-6.14-1.62-13.75 3.29-18.54 15.43-13.18 35.68-18.3 54.85-23.32-22.22-4.1-44.48-11.56-62.35-25.78-20.36-14.99-31.43-41.94-26.8-66.84 6.65-20.81 33.08-14.98 48.52-8.86 39.05 13.93 73.84 37.22 108.44 59.54 0.16-31.61-0.19-63.23 0.07-94.84 4.99-47.83 46.31-88.6 94.41-91.95 84.54-0.62 169.11 0.07 253.65-0.32-12.2-5.57-37.47-12.01-27.15-29.64 27.53-23.85 69.21-17.06 96.98 2.83-6.93-11.86-15.98-27.77-7.76-40.92m-383.14 172.9c-0.07 60.3-0.12 120.61 0.04 180.92 0.06 23.08-0.71 46.21 0.41 69.27 4.36 28.26 25.47 52.62 52.4 61.85-13.51-15.16-20.72-36.39-15.59-56.53 3.48-12.2-4.91-23.85-2.26-36.25-0.03-17.9 16.78-29.25 32.07-34.55 39.44-12.11 84.59-8.46 119.86-32.87-33.14 33.6-84.87 31.61-122.6 57.33-9.23 5.71-10.31 16.91-8.46 26.62 25.23-28.85 64.9-38.17 101.3-42.76-29.38 13.06-59.5 26.52-83.01 49.09-10.51 10.52-20.69 25.27-16.15 40.98 18.67-36.6 56.8-56.52 95.07-66.07-28.7 19.99-59.69 40.98-75.76 73.21-6.02 12.88-4.88 31.65 6.62 40.4 3.88-12.54 6.45-27.53 15-38.74 25.88-41.23 72.95-59.76 109.28-89.7 18.82-14.92 33.46-36.32 36.35-60.52 9.19 31.49-8 63.74-32.48 83.05-33.73 29.04-76.52 50.35-99.4 89.99 72.45 0.44 144.9 0.14 217.36 0.15 25.84-0.01 51.7 0.34 77.54-0.14 38.18-3.43 70.32-40.3 67.43-78.72-0.21-78.66 0.06-157.33-0.13-235.99 2.41-39.9-31.8-75.87-71.04-78.15-109.93 0.09-219.86 0.07-329.79 0.01-40.36 0.29-76.29 37.68-74.06 78.12m502.03 29.92c-0.06 4.26-0.09 8.53-0.06 12.8-0.16 8.02-0.09 16.03 0.09 24.05-0.34 14.71-0.07 29.42-0.09 44.14 51.4-0.42 102.87 0.9 154.24-0.65-51.63-26.36-102.68-53.76-154.18-80.34m-0.08 194.03c-0.01 1.67-0.02 3.34-0.01 5.02 0.03 3.02 0 5.99 0.1 9.04-0.41 8.78-1.33 17.54-2.86 26.2 25.55-13.08 50.91-26.62 76.41-39.82-24.52-1.18-49.1-0.16-73.64-0.44z"/><path d="m193.05 184.08c-2.23-40.44 33.7-77.83 74.06-78.12 109.93 0.06 219.86 0.08 329.79-0.01 39.24 2.28 73.45 38.25 71.04 78.15-15.7-23.21-41.73-40.33-70.29-40.84-109.89-0.68-219.79 0.05-329.68-0.36-30.17-1.1-58.24 16.85-74.92 41.18z" fill="#84d9f4"/><path d="m193.05 184.08c16.68-24.33 44.75-42.28 74.92-41.18 109.89 0.41 219.79-0.32 329.68 0.36 28.56 0.51 54.59 17.63 70.29 40.84 0.19 78.66-0.08 157.33 0.13 235.99 2.89 38.42-29.25 75.29-67.43 78.72-25.84 0.48-51.7 0.13-77.54 0.14-26.93-42.83-71.84-71.64-117.96-90.14 24.48-19.31 41.67-51.56 32.48-83.05-2.89 24.2-17.53 45.6-36.35 60.52-36.33 29.94-83.4 48.47-109.28 89.7-8.55 11.21-11.12 26.2-15 38.74-11.5-8.75-12.64-27.52-6.62-40.4 16.07-32.23 47.06-53.22 75.76-73.21-38.27 9.55-76.4 29.47-95.07 66.07-4.54-15.71 5.64-30.46 16.15-40.98 23.51-22.57 53.63-36.03 83.01-49.09-36.4 4.59-76.07 13.91-101.3 42.76-1.85-9.71-0.77-20.91 8.46-26.62 37.73-25.72 89.46-23.73 122.6-57.33-35.27 24.41-80.42 20.76-119.86 32.87-22.22-2.86-44.62-4.53-67.03-3.79-0.16-60.31-0.11-120.62-0.04-180.92m310.97 72.95c-33.86 24.16-42.1 75.69-20.93 110.86 15.54 27.43 47.06 45.46 78.75 43.2 41.76-0.01 80.48-35.53 82.88-77.37 12.58-42.43-14.6-89.94-57-101.45-29.7-7.65-63.11 1.79-83.7 24.76m-33.95 141.47c-10.85 1.2-13.38 15.22-5.81 22.19 14.83 16.18 39.08 26.32 60.89 20.65 9.93-2.43 9.59-15.71 3.51-22-14.65-15.64-37.25-24.08-58.59-20.84z" fill="#00adee"/><path d="m695.08 214c51.5 26.58 102.55 53.98 154.18 80.34-51.37 1.55-102.84 0.23-154.24 0.65 0.02-14.72-0.25-29.43 0.09-44.14 38.29 9.59 75.87 21.8 113.95 32.14-37.95-18.85-75.86-37.8-114.04-56.19-0.03-4.27 0-8.54 0.06-12.8z" fill="#f6921e"/><path d="m695.02 226.8c38.18 18.39 76.09 37.34 114.04 56.19-38.08-10.34-75.66-22.55-113.95-32.14-0.18-8.02-0.25-16.03-0.09-24.05z" fill="#fff"/><path d="m504.02 257.03c20.59-22.97 54-32.41 83.7-24.76 42.4 11.51 69.58 59.02 57 101.45-10.47 34.18-43.84 61.71-80.52 59.25-33.64 0.29-65.75-23.05-75.96-55.1-10.65-27.41-3.02-58.96 15.78-80.84m25.38-1.97-0.19 0.67c-25.67 16.05-38.09 50.94-26.08 79.22 13.74 40.12 67.73 56.71 101.25 30.59l-0.93-0.04c28.16-17.01 37.3-57.56 20.88-85.83-17.12-33.53-63.68-45.66-94.93-24.61z"/><path d="m529.4 255.06c31.25-21.05 77.81-8.92 94.93 24.61 16.42 28.27 7.28 68.82-20.88 85.83-32.7 3.08-65.95-16.62-77.18-47.73-7.92-20.13-4.53-42.37 2.94-62.04l0.19-0.67m29.51 60.23c-2.28 15.8 14.52 29.79 29.72 24.74 12.79-2.43 21.04-17.18 17.29-29.48-2.89 11.28-20.59 11.36-22.66-0.14-2.63-7.63 4.64-12.13 10.06-15.57-14.8-6.62-34.72 3.49-34.41 20.45z" fill="#fff"/><path d="m503.13 334.95c-12.01-28.28 0.41-63.17 26.08-79.22-7.47 19.67-10.86 41.91-2.94 62.04 11.23 31.11 44.48 50.81 77.18 47.73l0.93 0.04c-33.52 26.12-87.51 9.53-101.25-30.59z" fill="#d0d2d3"/><path d="m483.09 367.89c-21.17-35.17-12.93-86.7 20.93-110.86-18.8 21.88-26.43 53.43-15.78 80.84 10.21 32.05 42.32 55.39 75.96 55.1 36.68 2.46 70.05-25.07 80.52-59.25-2.4 41.84-41.12 77.36-82.88 77.37-31.69 2.26-63.21-15.77-78.75-43.2z" fill="#0594c1"/><path d="m558.91 315.29c-0.31-16.96 19.61-27.07 34.41-20.45-5.42 3.44-12.69 7.94-10.06 15.57 2.07 11.5 19.77 11.42 22.66 0.14 3.75 12.3-4.5 27.05-17.29 29.48-15.2 5.05-32-8.94-29.72-24.74z"/><path d="m193.09 365c22.41-0.74 44.81 0.93 67.03 3.79-15.29 5.3-32.1 16.65-32.07 34.55-2.65 12.4 5.74 24.05 2.26 36.25-5.13 20.14 2.08 41.37 15.59 56.53-26.93-9.23-48.04-33.59-52.4-61.85-1.12-23.06-0.35-46.19-0.41-69.27z" fill="#fff"/><path d="m470.07 398.5c21.34-3.24 43.94 5.2 58.59 20.84 6.08 6.29 6.42 19.57-3.51 22-21.81 5.67-46.06-4.47-60.89-20.65-7.57-6.97-5.04-20.99 5.81-22.19z"/><path d="m695 408.03c24.54 0.28 49.12-0.74 73.64 0.44-25.5 13.2-50.86 26.74-76.41 39.82 1.53-8.66 2.45-17.42 2.86-26.2 16.88-2.13 33.51-5.78 50.26-8.76-16.79-0.66-33.58-0.3-50.36-0.28-0.01-1.68 0-3.35 0.01-5.02z" fill="#f6921e"/><path d="m305.74 498.8c22.88-39.64 65.67-60.95 99.4-89.99 46.12 18.5 91.03 47.31 117.96 90.14-72.46-0.01-144.91 0.29-217.36-0.15z" fill="#fff"/><path d="m694.99 413.05c16.78-0.02 33.57-0.38 50.36 0.28-16.75 2.98-33.38 6.63-50.26 8.76-0.1-3.05-0.07-6.02-0.1-9.04z" fill="#fff"/><path d="m363.29 527.2c7.41-0.13 14.83-0.31 22.25-0.59-4.26 13.22-16.58 21.63-25.33 31.8 5.09 21.92-7.7 45.55-27.77 54.76-2.73-5.49-5.77-10.9-7.5-16.81 9.36-5.57 17.26-14.88 16.95-26.36-14.13 4.35-27.63 10.87-42.8 11.13-2.19-6.05-2.51-12.56-2.85-18.91 25.8-1.53 51.61-13.91 67.05-35.02z" fill="#f6921e"/><path d="m189.27 551.17c23.52 0.87 47.85-5.34 66.93-19.42 4.84 5.35 10.83 9.52 17.06 13.11-4.91 3.73-9.98 7.25-15.05 10.77 4.3 24.54-13.94 47.47-36.03 55.33-5.56-3.74-5.61-12.66-7.87-18.85 11.2-4.78 22.05-14 22.76-26.98-16.14 3.31-32.16 8.03-48.86 7.04 0.35-7 0.7-14.01 1.06-21z" fill="#f6921e"/></g></svg>
