<svg width="239.39mm" height="162.66mm" version="1.1" viewBox="0 0 239.39 162.66" xmlns="http://www.w3.org/2000/svg"><g transform="matrix(.26458 0 0 .26458 -4.6306 -1.4214)"><path d="m589.97 6.76c21.56-6.65 45.54 10.48 49.4 32.2 2.93 16.37-1.77 33.08-10.29 47.05 40.86 14.61 68.67 57.91 65.98 101.02 1.14 8.54-2.48 18.86 1.05 26.64 75.14 40.15 151.49 78.38 226.25 119.12-75.78 0.5-151.57 0.05-227.35 0.21-0.04 16.33-0.04 32.66 0 48.99 46.13 0.24 92.28-0.41 138.41 0.3-47.52 25.94-96.39 50.31-144.2 75.97-12.64 36.41-47.35 63.53-85.54 67.62-55.47 0.46-110.96-0.28-166.43 0.33-11.86 21.87-22.77 45.3-21.64 70.88-21.31-5.5-35.06-24.81-44.68-43.4 6.56-7.94 11.65-16.92 15.16-26.6-6.32-0.01-12.62-0.03-18.93-0.04-8.1 14.47-15.48 29.52-18.99 45.85-1.98 7.66-2.55 15.57-3.53 23.4-0.33 0.23-1 0.68-1.33 0.91-6.43-2.65-12.17-6.78-17.95-10.59-4.9-4.47-9.4-9.36-13.36-14.67-9.54-13.12-16.17-29.15-14.95-45.63-1.62 0.11-4.86 0.35-6.47 0.47-7.76 0.14-15.52 0.22-23.27 0.06-51.17-0.68-97.35-42.98-101.18-94.24-0.46-35.26 0.15-70.52-0.22-105.78-27.56 23.76-65.6 43.16-102.46 30.69-15.08-7.01-33.79-20.32-29.63-39.19 14.82-19.29 42.39-18.43 64.31-23.08-25.01-7.05-49.76-19.61-65.75-40.63-14.32-19.33-21.27-48.38-7.18-69.38 12.87-10.76 31.56-2.25 44.54 4.03 35.43 18.58 66.4 44.68 96.25 70.76 0.21-29.91-0.31-59.82 0.16-89.73 5.43-47.45 46.52-87.78 94.34-91.04 97.2-0.71 194.45 0.1 291.67-0.39-18.81-8.74-37.93-17.66-53.91-31.11-7.16-5.09-8.22-17.3 0.84-20.74 31.02-16.73 70.12-3.49 92.9 21.09-4.45-13-11.04-29.11-2.02-41.35m-396.9 177.27c-0.13 60.32-0.11 120.65 0 180.97-0.16 19.96-0.09 39.92-0.1 59.89-0.32 40.72 38.09 77.7 79.01 74.14-6.11-14.05 2.2-29.45-4.83-43.15-3.01-12.12-4.3-26.19 2.6-37.22 10.48-19.24 31.73-27.87 49.48-38.86l0.8 0.21c21.63-12.15 45.22-23.16 59.81-44.17-10.84 36.12-47.77 53.77-74.89 76.11-11.4 9.22-24.26 21.95-22.5 37.96 19.34-25.1 50.13-38.36 79.58-47.9-20.83 17.28-44.32 32.4-59.98 54.97-9.46 13.08-9.94 32.52 2.27 44.14 8.77-47.36 52.74-75.73 92.52-96.31-30.07 31.77-65.33 64.1-74.34 108.86-1.26 15.16-2.08 31.54 5.24 45.4 8.06-46.66 43.99-80.87 70.94-117.39 25.18-32.42 49.98-73.12 38.43-115.97 12.22 30.26 3.61 64.45-7.22 93.98-12.81 27.56-28.78 53.48-45.26 78.97 46.14 0.75 92.3 0.21 138.46 0.27 24.24 0.12 48.49 0.12 72.74 0.06 40.19-0.25 75.23-38.98 72.25-78.9-0.23-78.67 0.05-157.34-0.14-236.02 2.39-39.9-31.82-75.84-71.05-78.12-109.92 0.09-219.85 0.07-329.77 0.01-40.34 0.29-76.3 37.64-74.05 78.07m502.06 49.86c-0.03 4.32-0.06 8.63-0.08 12.96-0.15 8-0.09 16 0.09 24-0.35 14.71-0.09 29.43-0.13 44.15 51.46-0.23 102.93 0.48 154.38-0.36-51.43-26.9-102.88-53.75-154.26-80.75m-0.13 164.13c-0.01 1.66-0.01 3.33 0 5 0.03 3.03-0.02 6.01 0.07 9.07-0.13 8.42-0.46 16.84-0.73 25.27 24.72-13.06 49.53-25.96 74.29-38.95-24.53-1.02-49.09-0.14-73.63-0.39m-303.04 129.52c-0.83 10.93 1.04 21.72 5.83 31.6 1.49-11.27 5.29-22.03 10.33-32.17-5.4 0.16-10.78 0.35-16.16 0.57z"/><path d="m193.07 184.03c-2.25-40.43 33.71-77.78 74.05-78.07 109.92 0.06 219.85 0.08 329.77-0.01 39.23 2.28 73.44 38.22 71.05 78.12-16.54-24.64-44.93-41.92-75.12-40.98-108.25-0.24-216.5 0.01-324.76-0.12-30.23-1.18-58.26 16.72-74.99 41.06z" fill="#84d9f4"/><path d="m193.07 184.03c16.73-24.34 44.76-42.24 74.99-41.06 108.26 0.13 216.51-0.12 324.76 0.12 30.19-0.94 58.58 16.34 75.12 40.98 0.19 78.68-0.09 157.35 0.14 236.02 2.98 39.92-32.06 78.65-72.25 78.9-24.25 0.06-48.5 0.06-72.74-0.06-21.56-35.74-57-60.05-93.2-79.24 10.83-29.53 19.44-63.72 7.22-93.98 11.55 42.85-13.25 83.55-38.43 115.97-26.95 36.52-62.88 70.73-70.94 117.39-7.32-13.86-6.5-30.24-5.24-45.4 9.01-44.76 44.27-77.09 74.34-108.86-39.78 20.58-83.75 48.95-92.52 96.31-12.21-11.62-11.73-31.06-2.27-44.14 15.66-22.57 39.15-37.69 59.98-54.97-29.45 9.54-60.24 22.8-79.58 47.9-1.76-16.01 11.1-28.74 22.5-37.96 27.12-22.34 64.05-39.99 74.89-76.11-14.59 21.01-38.18 32.02-59.81 44.17l-0.8-0.21c-41.04-10.81-83.8-15.09-126.16-14.8-0.11-60.32-0.13-120.65 0-180.97m310.95 72.99c-48.81 34.39-40.44 118.09 13.04 143.93 50.93 30.69 125.01-7.63 127.64-67.25 7.29-29.36-0.8-63.04-24.42-82.97-31.75-31.06-87.35-26.26-116.26 6.29m-33.77 141.27c-11.35 0.96-12.98 14.81-6.4 21.87 14.59 16.7 39.15 26.63 61.02 21.19 9.93-1.89 10.01-15.1 4.25-21.4-14.37-16.36-37.45-24.06-58.87-21.66z" fill="#00adee"/><path d="m504.02 257.02c28.91-32.55 84.51-37.35 116.26-6.29 23.62 19.93 31.71 53.61 24.42 82.97-12.59 44.71-65.46 73.44-109.22 53.74-52-17.96-68.69-90.75-31.46-130.42m25.38-1.97-0.19 0.67c-25.67 16.08-38.09 50.94-26.09 79.24 13.45 39.63 67.98 57.32 100.66 30.31 32.24-19.49 37.75-68.36 13.31-96.37-20.6-25.5-60.25-31.89-87.69-13.85z"/><path d="m695.13 233.89c51.38 27 102.83 53.85 154.26 80.75-51.45 0.84-102.92 0.13-154.38 0.36 0.04-14.72-0.22-29.44 0.13-44.15 38.27 9.59 75.84 21.83 113.93 32.11-37.97-18.76-75.81-37.8-114.02-56.11 0.02-4.33 0.05-8.64 0.08-12.96z" fill="#f6921e"/><path d="m529.4 255.05c27.44-18.04 67.09-11.65 87.69 13.85 24.44 28.01 18.93 76.88-13.31 96.37-32.82 3.67-66.23-16.39-77.52-47.49-7.9-20.15-4.52-42.38 2.95-62.06l0.19-0.67m29.51 60.25c-1.95 14.27 11.43 27.38 25.66 25.56 14.61-0.64 25.85-16.47 21.5-30.36-3.08 11.65-21.6 11.28-22.95-0.86-2.64-7.97 5.74-10.83 10.06-15.02-14.81-6.24-34.6 3.76-34.27 20.68z" fill="#fff"/><path d="m695.05 246.85c38.21 18.31 76.05 37.35 114.02 56.11-38.09-10.28-75.66-22.52-113.93-32.11-0.18-8-0.24-16-0.09-24z" fill="#fff"/><path d="m503.12 334.96c-12-28.3 0.42-63.16 26.09-79.24-7.47 19.68-10.85 41.91-2.95 62.06 11.29 31.1 44.7 51.16 77.52 47.49-32.68 27.01-87.21 9.32-100.66-30.31z" fill="#d0d2d3"/><path d="m517.06 400.95c-53.48-25.84-61.85-109.54-13.04-143.93-37.23 39.67-20.54 112.46 31.46 130.42 43.76 19.7 96.63-9.03 109.22-53.74-2.63 59.62-76.71 97.94-127.64 67.25z" fill="#0594c1"/><path d="m558.91 315.3c-0.33-16.92 19.46-26.92 34.27-20.68-4.32 4.19-12.7 7.05-10.06 15.02 1.35 12.14 19.87 12.51 22.95 0.86 4.35 13.89-6.89 29.72-21.5 30.36-14.23 1.82-27.61-11.29-25.66-25.56z"/><path d="m193.07 365c42.36-0.29 85.12 3.99 126.16 14.8-17.75 10.99-39 19.62-49.48 38.86-6.9 11.03-5.61 25.1-2.6 37.22 7.03 13.7-1.28 29.1 4.83 43.15-40.92 3.56-79.33-33.42-79.01-74.14 0.01-19.97-0.06-39.93 0.1-59.89z" fill="#fff"/><path d="m470.25 398.29c21.42-2.4 44.5 5.3 58.87 21.66 5.76 6.3 5.68 19.51-4.25 21.4-21.87 5.44-46.43-4.49-61.02-21.19-6.58-7.06-4.95-20.91 6.4-21.87z"/><path d="m695 398.02c24.54 0.25 49.1-0.63 73.63 0.39-24.76 12.99-49.57 25.89-74.29 38.95 0.27-8.43 0.6-16.85 0.73-25.27 16.89-2.08 33.51-5.84 50.27-8.74-16.78-0.57-33.56-0.37-50.34-0.33-0.01-1.67-0.01-3.34 0-5z" fill="#f6921e"/><path d="m695 403.02c16.78-0.04 33.56-0.24 50.34 0.33-16.76 2.9-33.38 6.66-50.27 8.74-0.09-3.06-0.04-6.04-0.07-9.07z" fill="#fff"/><path d="m384.63 498.66c16.48-25.49 32.45-51.41 45.26-78.97 36.2 19.19 71.64 43.5 93.2 79.24-46.16-0.06-92.32 0.48-138.46-0.27z" fill="#fff"/><path d="m266.35 526.83 0.96 0.02c7.75 0.16 15.51 0.08 23.27-0.06-4.8 13.08-17.13 22.04-25.27 32.57 5.56 23.96-6.68 51.3-29.74 60.79-2.66-6.06-5.84-11.85-8.55-17.88 9.95-6.8 19.79-17.01 17.98-30.22-15.11 6.91-31.05 12.47-47.72 13.85-0.96-6.88-0.65-13.86-2.14-20.66 27.49-2.32 54.69-15.98 71.21-38.41z" fill="#f6921e"/><path d="m367.16 527.05c6.31 0.01 12.61 0.03 18.93 0.04-3.51 9.68-8.6 18.66-15.16 26.6-3.62 3.47-6.02 8.17-3.89 13.19 6.86 19.75-4.73 40.21-20.03 52.24-4.45-4.56-7.16-10.49-11.38-15.25 2.37-2.43 4.75-4.91 7.68-6.66 0.33-0.23 1-0.68 1.33-0.91l0.64-0.47c3.33-7.17 5.72-15.16 2.89-22.93 3.51-16.33 10.89-31.38 18.99-45.85z" fill="#f6921e"/><path d="m391.96 527.54c5.38-0.22 10.76-0.41 16.16-0.57-5.04 10.14-8.84 20.9-10.33 32.17-4.79-9.88-6.66-20.67-5.83-31.6z" fill="#00adee"/><path d="m303.87 574.21c2.71-0.76 5.42-1.51 8.13-2.26 3.96 5.31 8.46 10.2 13.36 14.67-5.56 2.13-11.02 4.65-16.97 5.45-1.92-5.84-3.49-11.8-4.52-17.86z" fill="#f6921e"/></g></svg>
