<svg width="239.39mm" height="162.66mm" version="1.1" viewBox="0 0 239.39 162.66" xmlns="http://www.w3.org/2000/svg"><g transform="translate(-17.132 5.8236)"><g transform="matrix(.26458 0 0 .26458 12.495 -7.2194)"><path d="m592.43 5.98c22.68-4.67 46.21 14.55 47.5 37.49 1.63 15-3.2 29.82-10.85 42.55 31.68 11.38 55.71 39.93 63.36 72.47 5.84 17.81-0.21 37.71 3.65 55.24 75.17 40.07 151.56 78.26 226.22 119.13-75.77 0.34-151.53 0.02-227.3 0.15-0.03 16.33-0.06 32.65 0 48.98 46.1 0.2 92.22-0.34 138.32 0.25-47.38 26.07-96.34 50.36-144.14 75.99-12.55 36.44-47.33 63.53-85.48 67.66-72.13 0.44-144.28-0.31-216.41 0.35-7.35 0.38-14.7 0.79-22.04 1-24.75-0.4-49.5-0.25-74.24-0.19-7.92-0.09-15.82-0.04-23.73-0.23-51.14-0.56-97.31-42.99-101.17-94.18-0.39-35.26 0.09-70.53-0.17-105.79-28.01 24.03-67.49 44.22-104.55 29.72-14.27-7.09-31.81-20.28-27.56-38.27 14.85-19.23 42.38-18.46 64.32-23-25.01-7.14-49.79-19.63-65.79-40.68-14.21-19.21-21.01-47.68-7.64-68.85 11.83-11.17 30.42-3.46 42.99 2.53 36.11 18.69 68.04 44.53 97.88 71.92 0.9-25.09 0.21-50.2 0.34-75.31-1.98-29.93 12.6-59.04 33.88-79.43-1.78-26.1 7.66-56.38 29.85-71.6 9.45 17.58 15.84 50.5 41.96 45.04 5.05-16.77 12.38-35.7 28.04-45.04 5.93 16.3 14.85 31.41 25.67 44.93 75.61 0.37 151.22 0.21 226.82 0.08-18.8-8.79-37.91-17.68-53.92-31.11-6-4.62-8.7-15.39-1-19.61 30.96-18.52 71.58-5.1 94.76 19.91-4.06-12.78-13.45-32.98 0.43-42.1m-298.45 66.06c-0.65 2.31-1.29 4.61-1.94 6.92h4.92c-0.65-2.31-1.3-4.61-1.94-6.92h-1.04m-69.61 0.42c-11.26 27.32 0.6 56.75 14.61 80.56 21.49 34.55 52.03 62.32 84.04 86.96-43.38-11.41-82.27-39.13-107.33-76.31-10.07 8.82-11.04 24.15-4.73 35.41 12.4 22.64 35.99 35.52 57 48.94 26.82 14.72 54.6 27.78 83.29 38.38-43.02-0.41-86.62-13.74-122.49-38.02-2.69 27.85 11.83 56 36.45 69.4 30.35 15.88 65.51 20.62 99.37 20.44-37.49 6.02-79.78 5.04-115.12-11.69-36.75-18.13-45.09-63.29-40.71-100.26-5.93-5.85-11.22-12.31-15.16-19.66-1.38 52.71-0.26 105.61-0.52 158.39-0.08 21.55-0.27 43.11 0.05 64.66 2.31 34.17 30.76 63.67 64.23 69.19 88.58 0.32 177.18 0.12 265.76 0.09 25.22 0.1 50.44 0.1 75.67 0.06 38.93-2.28 72.22-39.88 69.29-78.91-0.19-78.66 0.03-157.32-0.11-235.98 2.41-40.19-32.37-76.47-71.97-78.19-105.06 0.27-210.12-0.15-315.17 0.21 12.43 13.28 26.74 24.56 39.93 37.05l0.94-0.02-0.94 0.02c55.41 46.29 118.75 104.6 116.59 182.94-4.49-37.12-25.83-69.81-50.67-96.79-39.07-41.76-87.6-72.85-129.4-111.6-13.55-12.94-25.94-27.67-32.9-45.27m-18.18 66.53c-2.82 3.2-4.42 7.22-6.28 11.01 2.86-2.72 11.45-7.33 6.28-11.01m488.92 94.95c-0.06 4.29-0.09 8.59-0.07 12.9-0.15 8-0.09 16.01 0.08 24.02-0.33 14.71-0.07 29.42-0.11 44.13 51.41-0.44 102.88 0.92 154.25-0.67-51.62-26.35-102.7-53.69-154.15-80.38m-0.11 164.08c-0.01 1.66-0.01 3.33-0.01 5.01 0.03 3.02-0.02 5.99 0.06 9.05-0.1 8.42-0.38 16.83-0.77 25.25 24.8-12.93 49.51-25.99 74.33-38.86-24.5-1.19-49.08-0.13-73.61-0.45z"/><path d="m293.98 72.04h1.04c0.64 2.31 1.29 4.61 1.94 6.92h-4.92c0.65-2.31 1.29-4.61 1.94-6.92z" fill="#00adee"/><path d="m224.37 72.46c6.96 17.6 19.35 32.33 32.9 45.27 41.8 38.75 90.33 69.84 129.4 111.6 24.84 26.98 46.18 59.67 50.67 96.79 2.16-78.34-61.18-136.65-116.59-182.94l0.94-0.02c91.7-0.31 183.42-0.17 275.13-0.09 28.88 0.22 55.19 17.73 71.14 41.04 0.14 78.66-0.08 157.32 0.11 235.98 2.93 39.03-30.36 76.63-69.29 78.91-25.23 0.04-50.45 0.04-75.67-0.06-22.57-37.43-60.21-62.07-98.12-81.94-71.8-35.1-152.1-52.57-231.92-52 0.26-52.78-0.86-105.68 0.52-158.39 3.94 7.35 9.23 13.81 15.16 19.66-4.38 36.97 3.96 82.13 40.71 100.26 35.34 16.73 77.63 17.71 115.12 11.69-33.86 0.18-69.02-4.56-99.37-20.44-24.62-13.4-39.14-41.55-36.45-69.4 35.87 24.28 79.47 37.61 122.49 38.02-28.69-10.6-56.47-23.66-83.29-38.38-21.01-13.42-44.6-26.3-57-48.94-6.31-11.26-5.34-26.59 4.73-35.41 25.06 37.18 63.95 64.9 107.33 76.31-32.01-24.64-62.55-52.41-84.04-86.96-14.01-23.81-25.87-53.24-14.61-80.56m279.66 184.57c-33.26 23.7-41.83 73.89-22.03 108.96 15.21 28.45 47.4 47.42 79.84 45.1 41.77 0 80.44-35.57 82.88-77.38 14.08-46.46-20.81-98.64-68.81-103.77-26.61-2.42-53.91 7.05-71.88 27.09m-33.99 141.46c-10.82 1.26-13.37 15.23-5.77 22.21 14.83 16.16 39.09 26.33 60.89 20.63 9.92-2.43 9.59-15.72 3.5-22-14.66-15.64-37.27-24.06-58.62-20.84z" fill="#00adee"/><path d="m280.82 106.13c105.05-0.36 210.11 0.06 315.17-0.21 39.6 1.72 74.38 38 71.97 78.19-15.95-23.31-42.26-40.82-71.14-41.04-91.71-0.08-183.43-0.22-275.13 0.09l-0.94 0.02c-13.19-12.49-27.5-23.77-39.93-37.05z" fill="#84d9f4"/><path d="m206.19 138.99c5.17 3.68-3.42 8.29-6.28 11.01 1.86-3.79 3.46-7.81 6.28-11.01z" fill="#5890a2"/><path d="m504.03 257.03c17.97-20.04 45.27-29.51 71.88-27.09 48 5.13 82.89 57.31 68.81 103.77-8.2 26.02-28.68 47.9-54.87 56.17-31.86 9.91-69.1-1.78-89.18-28.54-23.64-30.03-22.43-75.84 3.36-104.31m25.37-1.98-0.18 0.67c-25.66 16.06-38.12 50.95-26.09 79.23 13.75 40.14 67.69 56.67 101.26 30.62l-0.93-0.11c25.02-15.16 35.76-49.79 24.9-76.91-13.04-39.12-64.83-56.65-98.96-33.5z"/><path d="m695.11 233.94c51.45 26.69 102.53 54.03 154.15 80.38-51.37 1.59-102.84 0.23-154.25 0.67 0.04-14.71-0.22-29.42 0.11-44.13 38.29 9.57 75.86 21.8 113.94 32.12-37.95-18.81-75.82-37.81-114.02-56.14-0.02-4.31 0.01-8.61 0.07-12.9z" fill="#f6921e"/><path d="m529.4 255.05c34.13-23.15 85.92-5.62 98.96 33.5 10.86 27.12 0.12 61.75-24.9 76.91-39.5 4.48-79.15-26.88-81.39-66.9-2.15-14.92 2.53-29.01 7.15-42.84l0.18-0.67m33.59 75.88c13.52 21.84 51.77 4.28 42.87-20.39-2.78 11.34-20.57 11.34-22.6-0.13-2.61-7.6 4.57-12.2 10.08-15.52-21.82-10.96-45.1 16.77-30.35 36.04z" fill="#fff"/><path d="m695.04 246.84c38.2 18.33 76.07 37.33 114.02 56.14-38.08-10.32-75.65-22.55-113.94-32.12-0.17-8.01-0.23-16.02-0.08-24.02z" fill="#fff"/><path d="m503.13 334.95c-12.03-28.28 0.43-63.17 26.09-79.23-4.62 13.83-9.3 27.92-7.15 42.84 2.24 40.02 41.89 71.38 81.39 66.9l0.93 0.11c-33.57 26.05-87.51 9.52-101.26-30.62z" fill="#d0d2d3"/><path d="m482 365.99c-19.8-35.07-11.23-85.26 22.03-108.96-25.79 28.47-27 74.28-3.36 104.31 20.08 26.76 57.32 38.45 89.18 28.54 26.19-8.27 46.67-30.15 54.87-56.17-2.44 41.81-41.11 77.38-82.88 77.38-32.44 2.32-64.63-16.65-79.84-45.1z" fill="#0594c1"/><path d="m562.99 330.93c-14.75-19.27 8.53-47 30.35-36.04-5.51 3.32-12.69 7.92-10.08 15.52 2.03 11.47 19.82 11.47 22.6 0.13 8.9 24.67-29.35 42.23-42.87 20.39z"/><path d="m193.07 365c79.82-0.57 160.12 16.9 231.92 52 37.91 19.87 75.55 44.51 98.12 81.94-88.58 0.03-177.18 0.23-265.76-0.09-33.47-5.52-61.92-35.02-64.23-69.19-0.32-21.55-0.13-43.11-0.05-64.66z" fill="#fff"/><path d="m470.04 398.49c21.35-3.22 43.96 5.2 58.62 20.84 6.09 6.28 6.42 19.57-3.5 22-21.8 5.7-46.06-4.47-60.89-20.63-7.6-6.98-5.05-20.95 5.77-22.21z"/><path d="m695 398.02c24.53 0.32 49.11-0.74 73.61 0.45-24.82 12.87-49.53 25.93-74.33 38.86 0.39-8.42 0.67-16.83 0.77-25.25 16.91-2.06 33.53-5.83 50.3-8.74-16.78-0.62-33.57-0.32-50.36-0.31 0-1.68 0-3.35 0.01-5.01z" fill="#f6921e"/><path d="m694.99 403.03c16.79-0.01 33.58-0.31 50.36 0.31-16.77 2.91-33.39 6.68-50.3 8.74-0.08-3.06-0.03-6.03-0.06-9.05z" fill="#fff"/><path d="m365.26 527.24c7.34-0.21 14.69-0.62 22.04-1-4.21 16.52-25.19 28.12-19.01 45.65 3.95 18.61-7.67 35.99-21.31 47.41-3.97-4.9-7.33-10.26-11.04-15.33 8.13-7.87 15.85-17.79 14-29.96-13.29 7.07-26.53 15.28-41.55 18.02-1.83-5.81-3.67-11.67-4.44-17.73 25.17-7.47 50.28-22.16 61.31-47.06z" fill="#f6921e"/><path d="m266.33 526.79 0.96 0.03c7.91 0.19 15.81 0.14 23.73 0.23-5.98 12.59-17.06 21.96-25.79 32.28 5.73 23.87-6.59 51.45-29.69 60.72-2.54-6.08-5.93-11.74-8.51-17.79 9.93-6.79 19.79-17.01 17.98-30.19-15.14 6.85-31.09 12.5-47.78 13.82-0.26-6.94-1.12-13.8-2.06-20.67 27.37-2.41 54.93-15.79 71.16-38.43z" fill="#f6921e"/></g></g></svg>
