<svg width="239.39mm" height="162.66mm" version="1.1" viewBox="0 0 239.39 162.66" xmlns="http://www.w3.org/2000/svg"><g transform="translate(-17.132 5.8236)"><g transform="matrix(.26458 0 0 .26458 15.019 -5.399)"><path d="m576.2 11.19c19.46-7.79 43.87 2.21 52.05 21.51 8.49 16.56 4.17 35.57-1.22 52.32 44.22 15.11 73.04 62.52 68.1 108.7 75.88 39.31 152.16 78.38 227.17 119.16-75.76 0.3-151.52 0.01-227.29 0.13-0.03 26.33-0.04 52.65 0 78.98 46.11 0.2 92.22-0.32 138.32 0.23-49.23 27.22-100.34 52.18-149.86 79.24-15.52 29.8-46.47 50.7-79.76 54.43-72.71 0.7-145.48-0.81-218.17 0.73-7.42 0.29-14.85 0.47-22.27 0.59-24.09-0.38-48.18-0.15-72.28-0.23-9.18-0.03-18.35-0.12-27.52-0.23-49.68-2.63-93.55-44.22-97.36-94.11-0.57-32.72 0.47-65.46-0.4-98.16-26.09 29.55-72.69 54.78-110.41 31.22-10.79-6-23.74-21.5-12.97-33.37 15.31-14.08 36.3-19.19 55.86-24.37-21.99-4.05-44.02-11.4-61.8-25.34-20.69-14.95-32.05-42.15-27.35-67.3 6.67-20.78 33.06-14.98 48.51-8.84 39.04 13.93 73.84 37.2 108.43 59.56 0.17-31.62-0.16-63.25 0.08-94.87 5-47.84 46.31-88.54 94.4-91.96 84.54-0.58 169.11 0.09 253.67-0.32-9.18-3.11-17.84-7.8-25.82-13.24-7.82-5.35-3.51-17.97 4.59-20.78 27.77-18.9 65.06-11.12 91.05 7.22-6.95-11.83-15.98-27.78-7.75-40.9m-383.15 172.92c-0.21 10.83-0.14 21.66 0.17 32.49 60.69 28.57 130.89 24.94 192.01 52.19 24.74 10.03 46.82 30.47 52.74 57.22-12.06-15.5-25.73-30.67-43.79-39.18-35.17-18.62-76.05-17.52-114.24-24.74-22.1-3.29-43.53-9.65-64.78-16.18 9.14 16.6 27.87 24.42 44.67 31.27 25.39 9.54 51.73 16.88 78.67 20.37-44.39 2.67-91.78-3.36-129.53-28.52 6.36 11.96 19.26 18.45 31.08 23.91 36.59 16.01 77.11 19.22 116.45 22.19-45.49 6.03-94.05 5.17-136.52-14.15 9.37 12.51 24.15 19.39 38.95 23.1 35.58 9.97 72.83 9.61 109.39 12.36-48.11 8.04-101.69 11.86-146.16-11.61-17.13-7.23-18.63-26.96-28.79-39.5-0.93 26.53-0.16 53.12-0.29 79.67 0.12 23.43-0.8 46.9 0.54 70.3 5.47 32.69 34.14 61.04 67.54 63.59 87.31 0.23 174.62 0.11 261.93 0.05 24.25 0.13 48.5 0.07 72.76 0.07 36.97-0.3 69.3-32.93 72.13-69.18 0.01-81.91 0.09-163.82-0.04-245.73 2.42-39.9-31.8-75.86-71.03-78.15-109.94 0.09-219.88 0.06-329.82 0.01-40.35 0.29-76.3 37.71-74.04 78.15m502.05 29.84c-0.06 4.29-0.09 8.58-0.07 12.88-0.15 8.01-0.09 16.01 0.09 24.03-0.34 14.7-0.07 29.42-0.11 44.13 51.41-0.43 102.89 0.92 154.25-0.67-51.62-26.35-102.71-53.69-154.16-80.37m-0.1 194.07c-0.01 1.67-0.02 3.34-0.01 5.02 0.04 3.02 0 6 0.1 9.06-0.41 8.78-1.3 17.54-2.85 26.2 25.54-13.03 50.88-26.68 76.39-39.82-24.5-1.24-49.09-0.13-73.63-0.46z"/><path d="m193.05 184.11c-2.26-40.44 33.69-77.86 74.04-78.15 109.94 0.05 219.88 0.08 329.82-0.01 39.23 2.29 73.45 38.25 71.03 78.15-16.5-24.68-44.93-41.92-75.1-41.02-108.29-0.26-216.59 0.11-324.88-0.18-30.15-1.09-58.27 16.84-74.91 41.21z" fill="#84d9f4"/><path d="m193.05 184.11c16.64-24.37 44.76-42.3 74.91-41.21 108.29 0.29 216.59-0.08 324.88 0.18 30.17-0.9 58.6 16.34 75.1 41.02 0.13 81.91 0.05 163.82 0.04 245.73-2.83 36.25-35.16 68.88-72.13 69.18-24.26 0-48.51 0.06-72.76-0.07-22.97-38.07-61.44-62.96-100.1-82.94-71.33-34.27-150.82-51.81-229.91-51 0.13-26.55-0.64-53.14 0.29-79.67 10.16 12.54 11.66 32.27 28.79 39.5 44.47 23.47 98.05 19.65 146.16 11.61-36.56-2.75-73.81-2.39-109.39-12.36-14.8-3.71-29.58-10.59-38.95-23.1 42.47 19.32 91.03 20.18 136.52 14.15-39.34-2.97-79.86-6.18-116.45-22.19-11.82-5.46-24.72-11.95-31.08-23.91 37.75 25.16 85.14 31.19 129.53 28.52-26.94-3.49-53.28-10.83-78.67-20.37-16.8-6.85-35.53-14.67-44.67-31.27 21.25 6.53 42.68 12.89 64.78 16.18 38.19 7.22 79.07 6.12 114.24 24.74 18.06 8.51 31.73 23.68 43.79 39.18-5.92-26.75-28-47.19-52.74-57.22-61.12-27.25-131.32-23.62-192.01-52.19-0.31-10.83-0.38-21.66-0.17-32.49m310.98 72.92c-33.26 23.71-41.82 73.9-22.03 108.96 15.21 28.45 47.4 47.43 79.84 45.1 41.76-0.01 80.49-35.54 82.88-77.37 12.17-42.31-14.46-90.03-57-101.45-29.7-7.66-63.11 1.79-83.69 24.76m-33.98 141.46c-10.84 1.24-13.37 15.24-5.78 22.21 14.83 16.16 39.09 26.33 60.89 20.63 9.92-2.42 9.58-15.73 3.5-22-14.66-15.64-37.27-24.07-58.61-20.84z" fill="#00adee"/><path d="m695.1 213.95c51.45 26.68 102.54 54.02 154.16 80.37-51.36 1.59-102.84 0.24-154.25 0.67 0.04-14.71-0.23-29.43 0.11-44.13 38.28 9.57 75.86 21.8 113.94 32.12-37.95-18.82-75.83-37.8-114.03-56.15-0.02-4.3 0.01-8.59 0.07-12.88z" fill="#f6921e"/><path d="m695.03 226.83c38.2 18.35 76.08 37.33 114.03 56.15-38.08-10.32-75.66-22.55-113.94-32.12-0.18-8.02-0.24-16.02-0.09-24.03z" fill="#fff"/><path d="m504.03 257.03c20.58-22.97 53.99-32.42 83.69-24.76 42.54 11.42 69.17 59.14 57 101.45-8.2 26.01-28.67 47.88-54.86 56.16-31.85 9.64-69.17-1.65-89.19-28.54-23.64-30.03-22.43-75.84 3.36-104.31m25.37-1.98-0.18 0.68c-25.67 16.04-38.12 50.95-26.09 79.22 13.73 40.13 67.75 56.71 101.26 30.57l-0.93-0.02c28.15-17.03 37.29-57.56 20.87-85.83-17.12-33.53-63.67-45.66-94.93-24.62z"/><path d="m529.4 255.05c31.26-21.04 77.81-8.91 94.93 24.62 16.42 28.27 7.28 68.8-20.87 85.83-32.69 3.09-65.97-16.61-77.18-47.73-7.96-20.14-4.53-42.37 2.94-62.04l0.18-0.68m29.5 60.23c-2.27 15.8 14.54 29.81 29.74 24.76 12.77-2.45 21.08-17.23 17.24-29.51-2.82 11.33-20.56 11.37-22.62-0.12-2.61-7.6 4.58-12.19 10.08-15.53-14.78-6.72-34.73 3.47-34.44 20.4z" fill="#fff"/><path d="m503.13 334.95c-12.03-28.27 0.42-63.18 26.09-79.22-7.47 19.67-10.9 41.9-2.94 62.04 11.21 31.12 44.49 50.82 77.18 47.73l0.93 0.02c-33.51 26.14-87.53 9.56-101.26-30.57z" fill="#d0d2d3"/><path d="m482 365.99c-19.79-35.06-11.23-85.25 22.03-108.96-25.79 28.47-27 74.28-3.36 104.31 20.02 26.89 57.34 38.18 89.19 28.54 26.19-8.28 46.66-30.15 54.86-56.16-2.39 41.83-41.12 77.36-82.88 77.37-32.44 2.33-64.63-16.65-79.84-45.1z" fill="#0594c1"/><path d="m558.9 315.28c-0.29-16.93 19.66-27.12 34.44-20.4-5.5 3.34-12.69 7.93-10.08 15.53 2.06 11.49 19.8 11.45 22.62 0.12 3.84 12.28-4.47 27.06-17.24 29.51-15.2 5.05-32.01-8.96-29.74-24.76z"/><path d="m193.08 365c79.09-0.81 158.58 16.73 229.91 51 38.66 19.98 77.13 44.87 100.1 82.94-87.31 0.06-174.62 0.18-261.93-0.05-33.4-2.55-62.07-30.9-67.54-63.59-1.34-23.4-0.42-46.87-0.54-70.3z" fill="#fff"/><path d="m470.05 398.49c21.34-3.23 43.95 5.2 58.61 20.84 6.08 6.27 6.42 19.58-3.5 22-21.8 5.7-46.06-4.47-60.89-20.63-7.59-6.97-5.06-20.97 5.78-22.21z"/><path d="m695 408.02c24.54 0.33 49.13-0.78 73.63 0.46-25.51 13.14-50.85 26.79-76.39 39.82 1.55-8.66 2.44-17.42 2.85-26.2 16.89-2.12 33.51-5.83 50.26-8.76-16.78-0.64-33.58-0.31-50.36-0.3-0.01-1.68 0-3.35 0.01-5.02z" fill="#f6921e"/><path d="m694.99 413.04c16.78-0.01 33.58-0.34 50.36 0.3-16.75 2.93-33.37 6.64-50.26 8.76-0.1-3.06-0.06-6.04-0.1-9.06z" fill="#fff"/><path d="m189.25 551.16c26.69 1.37 53.47-7.7 74.22-24.41 9.17 0.11 18.34 0.2 27.52 0.23-8.95 11.59-20.28 20.96-32.77 28.56 4.33 24.58-13.92 47.53-36.05 55.43-5.5-3.76-5.61-12.68-7.87-18.87 11.23-4.72 22.06-14.01 22.77-26.98-16.14 3.35-32.17 8.03-48.87 7.05 0.38-7.01 0.72-14.02 1.05-21.01z" fill="#f6921e"/><path d="m363.27 527.21c7.42-0.12 14.85-0.3 22.27-0.59-4.29 13.19-16.54 21.65-25.35 31.78 5.16 21.93-7.68 45.51-27.78 54.77-2.05-5.61-6.81-10.72-7.11-16.75 8.89-6.03 17.03-14.89 16.59-26.43-14.12 4.4-27.63 10.85-42.8 11.15-2.2-6.06-2.48-12.58-2.87-18.94 25.79-1.48 51.63-13.89 67.05-34.99z" fill="#f6921e"/></g></g></svg>
