<svg width="239.39mm" height="162.66mm" version="1.1" viewBox="0 0 239.39 162.66" xmlns="http://www.w3.org/2000/svg"><g transform="translate(-17.132 4.7653)"><g transform="matrix(.26458 0 0 .26458 15.018 -5.407)"><path d="m575.68 11.74c20.61-9.62 47.19 3.21 54.1 24.52 6.59 15.9 2.08 33.13-2.75 48.77 44.24 15.09 73.01 62.51 68.13 108.67 75.88 39.32 152.06 78.46 227.17 119.11-75.77 0.45-151.55 0.04-227.32 0.2-0.03 26.33-0.04 52.65 0 78.98 46.12 0.23 92.25-0.4 138.36 0.29-49.36 27.14-100.37 52.09-149.86 79.21-15.64 29.73-46.49 50.72-79.83 54.39-72.69 0.73-145.44-0.83-218.11 0.75-7.44 0.29-14.87 0.48-22.3 0.59-24.1-0.38-48.2-0.18-72.3-0.23-9.17-0.04-18.33-0.15-27.49-0.25-49.7-2.67-93.59-44.18-97.34-94.13-0.63-32.7 0.43-65.43-0.41-98.13-25.79 29.06-70.79 53.83-108.59 32.35-11.51-5.98-25.95-21.71-14.82-34.49 15.3-14.09 36.3-19.18 55.85-24.38-22.21-4.1-44.47-11.56-62.34-25.78-20.36-14.99-31.42-41.93-26.8-66.83 4-15.34 22.65-16.74 35.38-12.93 44.44 12.5 83.15 38.96 121.55 63.62 0.09-26.71 0.07-53.42-0.03-80.13-2.25-30.28 12.39-59.78 33.87-80.45-1.73-26.13 7.68-56.28 29.86-71.61 8.18 15.52 13.42 40.34 31.94 45.13 5.07-16.81 12.39-35.66 28.06-45.13 5.94 16.31 14.87 31.41 25.66 44.97 66.26 0.36 132.53 0.18 198.79 0.09-9.14-3.19-17.86-7.76-25.79-13.28-7.83-5.33-3.5-17.93 4.56-20.76 27.76-18.86 65.08-11.16 91.04 7.23-6.73-11.61-15.59-27.27-8.24-40.36m-291.7 60.31c-0.66 2.3-1.3 4.6-1.93 6.91h4.9c-0.64-2.31-1.28-4.61-1.93-6.91h-1.04m-47.91 75.88c21.27 36.99 53.47 66.24 86.98 92.01-43.76-11.04-81.87-39.65-107.85-76.18-9.42 9.19-10.52 24.08-4.25 35.31 12.16 22.2 35.12 35.02 55.77 48.21 27.19 15.04 55.39 28.34 84.52 39.16-42.91-0.41-86.07-13.87-122.08-37.49-2.37 22.23 6.48 45.75 23.84 60.05 31.05 24.74 73.46 28.49 111.65 29.32-31.41 5.56-65.49 4.22-96.61-4.38-26.35-6.68-49.31-27.6-55.51-54.44-5.14-17.25-4.75-35.46-3.82-53.25-5.91-5.87-11.14-12.36-15.2-19.64-1.19 52.75-0.25 105.6-0.43 158.39 0.08 23.12-0.71 46.27 0.44 69.38 5.17 36.86 40.78 67.74 78.43 64.66 83.71-0.14 167.43 0.07 251.14-0.1 24.26 0.11 48.53 0.11 72.79 0.05 40.17-0.34 75.19-38.95 72.2-78.9-0.22-78.67 0.04-157.34-0.13-236 2.41-40.21-32.39-76.46-71.98-78.17-105.05 0.28-210.1-0.16-315.15 0.22 12.43 13.31 26.85 24.52 39.94 37.15l0.96-0.04-0.94-0.19c55.32 46.54 118.76 104.65 116.58 183.09-3.67-31.15-19.52-59.45-39.14-83.37-40.6-49.5-96.22-82.97-142.49-126.51-12.63-12.6-24.84-26.5-30.99-43.53-11.07 24.93-1.14 52.77 11.33 75.19m-36.16 2.09c3.27-3.08 9.48-6.03 7.22-11.25-3.59 2.86-5.34 7.2-7.22 11.25m495.2 63.92c-0.05 4.29-0.08 8.59-0.07 12.9-0.14 8-0.08 16 0.09 24.01-0.33 14.71-0.1 29.43-0.12 44.15 51.41-0.43 102.86 0.88 154.24-0.66-51.59-26.42-102.72-53.67-154.14-80.4m-0.11 194.08c-0.01 1.67-0.01 3.34-0.01 5.01 0.04 3.04 0.01 6.02 0.11 9.08-0.39 8.78-1.4 17.53-2.84 26.2 25.54-13.1 50.86-26.67 76.36-39.87-24.52-1.09-49.08-0.15-73.62-0.42z"/><path d="m283.98 72.05h1.04c0.65 2.3 1.29 4.6 1.93 6.91h-4.9c0.63-2.31 1.27-4.61 1.93-6.91z" fill="#00adee"/><path d="m236.07 147.93c-12.47-22.42-22.4-50.26-11.33-75.19 6.15 17.03 18.36 30.93 30.99 43.53 46.27 43.54 101.89 77.01 142.49 126.51 19.62 23.92 35.47 52.22 39.14 83.37 2.18-78.44-61.26-136.55-116.58-183.09l0.94 0.19c91.68-0.53 183.39-0.19 275.08-0.18 28.84 0.35 55.21 17.67 71.15 41.02 0.17 78.66-0.09 157.33 0.13 236 2.99 39.95-32.03 78.56-72.2 78.9-24.26 0.06-48.53 0.06-72.79-0.05-17.65-29.42-45.25-51.32-74.33-68.7-76.93-44.84-167.04-65.61-255.68-65.24 0.18-52.79-0.76-105.64 0.43-158.39 4.06 7.28 9.29 13.77 15.2 19.64-0.93 17.79-1.32 36 3.82 53.25 6.2 26.84 29.16 47.76 55.51 54.44 31.12 8.6 65.2 9.94 96.61 4.38-38.19-0.83-80.6-4.58-111.65-29.32-17.36-14.3-26.21-37.82-23.84-60.05 36.01 23.62 79.17 37.08 122.08 37.49-29.13-10.82-57.33-24.12-84.52-39.16-20.65-13.19-43.61-26.01-55.77-48.21-6.27-11.23-5.17-26.12 4.25-35.31 25.98 36.53 64.09 65.14 107.85 76.18-33.51-25.77-65.71-55.02-86.98-92.01m267.95 109.09c-23.33 16.52-35.26 47.43-31.85 75.6 2.24 44.5 45.26 81.95 89.66 78.47 41.76-0.01 80.5-35.52 82.88-77.38 14.1-46.46-20.81-98.66-68.82-103.77-26.6-2.41-53.9 7.06-71.87 27.08m-33.79 141.27c-11.88 1.16-13.1 16.07-5.52 22.99 14.97 15.72 38.81 25.71 60.43 20.07 9.59-2.29 9.72-15.09 3.98-21.4-14.46-16.18-37.38-24.44-58.89-21.66z" fill="#00adee"/><path d="m280.82 106.14c105.05-0.38 210.1 0.06 315.15-0.22 39.59 1.71 74.39 37.96 71.98 78.17-15.94-23.35-42.31-40.67-71.15-41.02-91.69-0.01-183.4-0.35-275.08 0.18l-0.96 0.04c-13.09-12.63-27.51-23.84-39.94-37.15z" fill="#84d9f4"/><path d="m199.91 150.02c1.88-4.05 3.63-8.39 7.22-11.25 2.26 5.22-3.95 8.17-7.22 11.25z" fill="#5890a2"/><path d="m695.11 213.94c51.42 26.73 102.55 53.98 154.14 80.4-51.38 1.54-102.83 0.23-154.24 0.66 0.02-14.72-0.21-29.44 0.12-44.15 38.28 9.58 75.85 21.82 113.94 32.12-37.97-18.8-75.83-37.8-114.03-56.13-0.01-4.31 0.02-8.61 0.07-12.9z" fill="#f6921e"/><path d="m695.04 226.84c38.2 18.33 76.06 37.33 114.03 56.13-38.09-10.3-75.66-22.54-113.94-32.12-0.17-8.01-0.23-16.01-0.09-24.01z" fill="#fff"/><path d="m504.02 257.02c17.97-20.02 45.27-29.49 71.87-27.08 48.01 5.11 82.92 57.31 68.82 103.77-10.43 34.2-43.83 61.72-80.5 59.25-33.66 0.31-65.74-23.04-75.98-55.08-10.6-27.42-3.03-58.97 15.79-80.86m25.37-1.98-0.19 0.67c-25.64 16.1-38.08 50.94-26.08 79.25 13.76 40.1 67.74 56.71 101.25 30.57l-0.93-0.02c25.04-15.22 35.75-49.79 24.93-76.97-13.12-39.12-64.71-56.9-98.98-33.5z"/><path d="m529.39 255.04c34.27-23.4 85.86-5.62 98.98 33.5 10.82 27.18 0.11 61.75-24.93 76.97-32.69 3.07-65.95-16.63-77.17-47.74-7.92-20.14-4.51-42.37 2.93-62.06l0.19-0.67m33.57 75.88c13.76 21.77 51.25 4.47 43.07-20.37-3.04 11.2-20.64 11.43-22.77-0.14-2.63-7.63 4.64-12.1 10.04-15.58-21.86-10.77-44.96 16.75-30.34 36.09z" fill="#fff"/><path d="m503.12 334.96c-12-28.31 0.44-63.15 26.08-79.25-7.44 19.69-10.85 41.92-2.93 62.06 11.22 31.11 44.48 50.81 77.17 47.74l0.93 0.02c-33.51 26.14-87.49 9.53-101.25-30.57z" fill="#d0d2d3"/><path d="m472.17 332.62c-3.41-28.17 8.52-59.08 31.85-75.6-18.82 21.89-26.39 53.44-15.79 80.86 10.24 32.04 42.32 55.39 75.98 55.08 36.67 2.47 70.07-25.05 80.5-59.25-2.38 41.86-41.12 77.37-82.88 77.38-44.4 3.48-87.42-33.97-89.66-78.47z" fill="#0594c1"/><path d="m562.96 330.92c-14.62-19.34 8.48-46.86 30.34-36.09-5.4 3.48-12.67 7.95-10.04 15.58 2.13 11.57 19.73 11.34 22.77 0.14 8.18 24.84-29.31 42.14-43.07 20.37z"/><path d="m193.08 365c88.64-0.37 178.75 20.4 255.68 65.24 29.08 17.38 56.68 39.28 74.33 68.7-83.71 0.17-167.43-0.04-251.14 0.1-37.65 3.08-73.26-27.8-78.43-64.66-1.15-23.11-0.36-46.26-0.44-69.38z" fill="#fff"/><path d="m470.23 398.29c21.51-2.78 44.43 5.48 58.89 21.66 5.74 6.31 5.61 19.11-3.98 21.4-21.62 5.64-45.46-4.35-60.43-20.07-7.58-6.92-6.36-21.83 5.52-22.99z"/><path d="m695 408.02c24.54 0.27 49.1-0.67 73.62 0.42-25.5 13.2-50.82 26.77-76.36 39.87 1.44-8.67 2.45-17.42 2.84-26.2 16.87-2.16 33.5-5.81 50.24-8.78-16.79-0.55-33.57-0.36-50.35-0.3 0-1.67 0-3.34 0.01-5.01z" fill="#f6921e"/><path d="m694.99 413.03c16.78-0.06 33.56-0.25 50.35 0.3-16.74 2.97-33.37 6.62-50.24 8.78-0.1-3.06-0.07-6.04-0.11-9.08z" fill="#fff"/><path d="m189.28 551.17c26.69 1.35 53.44-7.72 74.2-24.43 9.16 0.1 18.32 0.21 27.49 0.25-8.95 11.59-20.27 20.95-32.73 28.55 4.26 24.57-13.91 47.57-36.09 55.41-5.39-3.74-5.62-12.66-7.85-18.85 11.24-4.75 22.01-13.99 22.78-26.97-16.14 3.34-32.17 7.99-48.86 7.05 0.36-7.01 0.7-14.02 1.06-21.01z" fill="#f6921e"/><path d="m363.27 527.22c7.43-0.11 14.86-0.3 22.3-0.59-4.38 13.23-16.63 21.59-25.33 31.81 5.04 21.98-7.74 45.42-27.82 54.76-2.03-5.58-6.89-10.78-7.08-16.76 8.85-6.11 16.99-14.9 16.54-26.47-14.12 4.49-27.67 10.8-42.83 11.18-1.96-6.1-2.55-12.55-2.82-18.92 25.79-1.55 51.6-13.9 67.04-35.01z" fill="#f6921e"/></g></g></svg>
