<svg width="239.39mm" height="162.66mm" version="1.1" viewBox="0 0 239.39 162.66" xmlns="http://www.w3.org/2000/svg"><g transform="translate(-17.132 5.8236)"><g transform="matrix(.26458 0 0 .26458 12.494 -7.2326)"><path d="m590.75 6.46c23.01-6.25 47.93 13.53 49.18 37.02 1.61 14.99-3.19 29.82-10.85 42.53 40.86 14.6 68.67 57.91 65.98 101.01 1.14 8.56-2.46 18.86 1.05 26.67 75.13 40.14 151.52 78.3 226.21 119.14-75.77 0.4-151.54 0.04-227.31 0.18-0.03 16.32-0.05 32.65 0 48.98 46.12 0.24 92.25-0.41 138.36 0.3-47.51 25.99-96.36 50.31-144.16 75.97-12.62 36.4-47.34 63.52-85.51 67.62-72.13 0.47-144.28-0.31-216.4 0.37-7.36 0.38-14.7 0.79-22.05 1-24.74-0.4-49.48-0.29-74.21-0.17-7.93-0.1-15.85-0.05-23.76-0.26-51.17-0.64-97.31-42.97-101.15-94.2-0.44-35.25 0.12-70.52-0.21-105.77-27.59 23.72-65.58 43.14-102.47 30.68-15.07-7.04-33.82-20.33-29.62-39.21 14.86-19.35 42.5-18.35 64.44-23.16-22.81-5.99-44.58-17.32-61.02-34.41-17.58-19.61-27.23-51.36-12.52-74.97 10.43-10.19 27.26-4.62 38.88 0.63 38.17 18.22 70.72 46.02 102.32 73.7 0.34-29.94-0.27-59.88 0.22-89.82 5.43-47.46 46.52-87.73 94.32-91.05 97.22-0.65 194.46 0.08 291.68-0.35-18.79-8.79-37.92-17.67-53.9-31.12-7.14-5.12-8.22-17.3 0.84-20.74 31.02-16.75 70.11-3.49 92.91 21.07-4.42-13.06-11.65-30.18-1.25-41.64m-397.69 177.62c-0.19 10.85-0.14 21.72 0.16 32.57 62.6 29.74 135.8 24.43 198.04 55.1 22.44 10.16 41.06 29.97 46.74 54.26-23.28-35.52-64.41-52.74-105.34-56.68-39.77-4.36-79.58-10.49-117.52-23.42 7.34 14.44 23.01 21.26 36.75 28.2 27.7 11.54 56.96 18.97 86.58 23.51-44.34 2.6-91.7-3.65-129.52-28.58 6.66 12.42 20.23 18.72 32.32 24.7 35.64 14.36 74.4 18.71 112.42 21.37l0.15 0.69c-44.78 4.79-92.2 4.34-133.87-14.81 17.19 21.72 46.57 25.36 72.07 30 25.45 1.39 50.77 4.84 76.27 5.45-32 6.35-65 7.63-97.41 3.67-22.49-3.83-47.34-8.87-62.81-27.2-8.01-7.69-5.63-20.83-14.71-27.6-0.95 26.54-0.16 53.13-0.31 79.69-0.06 21.54-0.3 43.1 0.06 64.65 2.37 34.12 30.74 63.74 64.24 69.19 88.56 0.33 177.14 0.14 265.71 0.09 25.87 0.02 51.75 0.32 77.62-0.1 38.13-3.35 70.24-40.37 67.37-78.74-0.22-78.67 0.07-157.35-0.14-236.02 2.41-39.89-31.81-75.84-71.03-78.12-109.93 0.08-219.86 0.07-329.79 0.01-40.35 0.29-76.31 37.68-74.05 78.12m502.07 49.84c-0.11 4.3-0.06 8.61-0.08 12.93-0.14 8-0.08 16 0.08 24.01-0.32 14.71-0.09 29.42-0.12 44.14 51.4-0.45 102.87 0.91 154.24-0.68-51.59-26.39-102.73-53.63-154.12-80.4m-0.13 164.09c0 1.67-0.01 3.34-0.01 5.01 0.03 3.03-0.01 6.01 0.07 9.06-0.11 8.42-0.4 16.84-0.75 25.26 24.76-12.98 49.51-25.98 74.31-38.89-24.52-1.14-49.09-0.13-73.62-0.44z"/><path d="m193.06 184.08c-2.26-40.44 33.7-77.83 74.05-78.12 109.93 0.06 219.86 0.07 329.79-0.01 39.22 2.28 73.44 38.23 71.03 78.12-16.56-24.58-44.87-42.08-75.09-40.98-108.29-0.28-216.58 0.1-324.87-0.19-30.16-1.1-58.24 16.84-74.91 41.18z" fill="#84d9f4"/><path d="m193.06 184.08c16.67-24.34 44.75-42.28 74.91-41.18 108.29 0.29 216.58-0.09 324.87 0.19 30.22-1.1 58.53 16.4 75.09 40.98 0.21 78.67-0.08 157.35 0.14 236.02 2.87 38.37-29.24 75.39-67.37 78.74-25.87 0.42-51.75 0.12-77.62 0.1-17.5-29.22-44.87-50.99-73.68-68.32-77.06-45.21-167.44-65.81-256.33-65.61 0.15-26.56-0.64-53.15 0.31-79.69 9.08 6.77 6.7 19.91 14.71 27.6 15.47 18.33 40.32 23.37 62.81 27.2 32.41 3.96 65.41 2.68 97.41-3.67-25.5-0.61-50.82-4.06-76.27-5.45-25.5-4.64-54.88-8.28-72.07-30 41.67 19.15 89.09 19.6 133.87 14.81l-0.15-0.69c-38.02-2.66-76.78-7.01-112.42-21.37-12.09-5.98-25.66-12.28-32.32-24.7 37.82 24.93 85.18 31.18 129.52 28.58-29.62-4.54-58.88-11.97-86.58-23.51-13.74-6.94-29.41-13.76-36.75-28.2 37.94 12.93 77.75 19.06 117.52 23.42 40.93 3.94 82.06 21.16 105.34 56.68-5.68-24.29-24.3-44.1-46.74-54.26-62.24-30.67-135.44-25.36-198.04-55.1-0.3-10.85-0.35-21.72-0.16-32.57m310.96 72.95c-33.25 23.73-41.82 73.89-22.02 108.96 15.21 28.45 47.39 47.42 79.84 45.11 41.77-0.01 80.45-35.57 82.87-77.38 12.61-42.43-14.6-89.95-56.99-101.45-29.7-7.66-63.11 1.79-83.7 24.76m-33.95 141.47c-10.85 1.19-13.38 15.22-5.81 22.19 14.83 16.18 39.08 26.31 60.89 20.65 9.92-2.43 9.59-15.71 3.51-22-14.65-15.64-37.25-24.08-58.59-20.84z" fill="#00adee"/><path d="m504.02 257.03c20.59-22.97 54-32.42 83.7-24.76 42.39 11.5 69.6 59.02 56.99 101.45-12.58 44.38-64.82 73.19-108.5 53.99-52.48-17.53-69.65-90.82-32.19-130.68m25.37-1.99-0.18 0.67c-40.61 23.7-39.85 89 0.98 112.1 21.79 14.72 53.07 13.96 73.61-2.52 24.75-15.28 35.37-49.73 24.56-76.75-13.05-39.11-64.82-56.62-98.97-33.5z"/><path d="m695.13 233.92c51.39 26.77 102.53 54.01 154.12 80.4-51.37 1.59-102.84 0.23-154.24 0.68 0.03-14.72-0.2-29.43 0.12-44.14 38.28 9.56 75.85 21.82 113.94 32.11-37.97-18.78-75.81-37.81-114.02-56.12 0.02-4.32-0.03-8.63 0.08-12.93z" fill="#f6921e"/><path d="m529.39 255.04c34.15-23.12 85.92-5.61 98.97 33.5 10.81 27.02 0.19 61.47-24.56 76.75-39.61 4.99-79.49-26.66-81.72-66.74-2.12-14.9 2.5-29.02 7.13-42.84l0.18-0.67m33.59 75.88c13.56 21.81 51.66 4.37 42.95-20.38-2.89 11.28-20.61 11.38-22.67-0.13-2.61-7.61 4.6-12.16 10.06-15.55-21.84-10.87-45.03 16.76-30.34 36.06z" fill="#fff"/><path d="m695.05 246.85c38.21 18.31 76.05 37.34 114.02 56.12-38.09-10.29-75.66-22.55-113.94-32.11-0.16-8.01-0.22-16.01-0.08-24.01z" fill="#fff"/><path d="m530.19 367.81c-40.83-23.1-41.59-88.4-0.98-112.1-4.63 13.82-9.25 27.94-7.13 42.84 2.23 40.08 42.11 71.73 81.72 66.74-20.54 16.48-51.82 17.24-73.61 2.52z" fill="#d0d2d3"/><path d="m482 365.99c-19.8-35.07-11.23-85.23 22.02-108.96-37.46 39.86-20.29 113.15 32.19 130.68 43.68 19.2 95.92-9.61 108.5-53.99-2.42 41.81-41.1 77.37-82.87 77.38-32.45 2.31-64.63-16.66-79.84-45.11z" fill="#0594c1"/><path d="m562.98 330.92c-14.69-19.3 8.5-46.93 30.34-36.06-5.46 3.39-12.67 7.94-10.06 15.55 2.06 11.51 19.78 11.41 22.67 0.13 8.71 24.75-29.39 42.19-42.95 20.38z"/><path d="m193.07 365c88.89-0.2 179.27 20.4 256.33 65.61 28.81 17.33 56.18 39.1 73.68 68.32-88.57 0.05-177.15 0.24-265.71-0.09-33.5-5.45-61.87-35.07-64.24-69.19-0.36-21.55-0.12-43.11-0.06-64.65z" fill="#fff"/><path d="m470.07 398.5c21.34-3.24 43.94 5.2 58.59 20.84 6.08 6.29 6.41 19.57-3.51 22-21.81 5.66-46.06-4.47-60.89-20.65-7.57-6.97-5.04-21 5.81-22.19z"/><path d="m695 398.01c24.53 0.31 49.1-0.7 73.62 0.44-24.8 12.91-49.55 25.91-74.31 38.89 0.35-8.42 0.64-16.84 0.75-25.26 16.9-2.07 33.51-5.81 50.26-8.75-16.78-0.55-33.56-0.34-50.33-0.31 0-1.67 0.01-3.34 0.01-5.01z" fill="#f6921e"/><path d="m694.99 403.02c16.77-0.03 33.55-0.24 50.33 0.31-16.75 2.94-33.36 6.68-50.26 8.75-0.08-3.05-0.04-6.03-0.07-9.06z" fill="#fff"/><path d="m365.25 527.25c7.35-0.21 14.69-0.62 22.05-1-4.26 16.5-25.12 28.1-19.04 45.65 4.01 18.62-7.66 35.96-21.28 47.41-3.94-4.92-7.35-10.25-11.04-15.34 8.14-7.87 15.83-17.78 13.99-29.96-13.28 7.1-26.54 15.24-41.54 18.04-1.83-5.82-3.62-11.69-4.44-17.75 25.16-7.47 50.27-22.15 61.3-47.05z" fill="#f6921e"/><path d="m266.3 526.79 0.98 0.03c7.91 0.21 15.83 0.16 23.76 0.26-6.48 12.16-16.15 22.38-26.08 31.81 6.4 24.02-6.32 51.74-29.39 61.21-2.6-6.07-5.9-11.79-8.54-17.84 9.94-6.79 19.78-17.01 17.98-30.2-15.14 6.89-31.09 12.47-47.77 13.84-0.37-6.93-1.05-13.82-2.05-20.68 27.44-2.33 54.72-15.93 71.11-38.43z" fill="#f6921e"/></g></g></svg>
