<svg width="239.39mm" height="162.66mm" version="1.1" viewBox="0 0 239.39 162.66" xmlns="http://www.w3.org/2000/svg"><g transform="matrix(.26458 0 0 .26458 -2.1134 -1.17)"><path d="m576.19 11.18c19.47-7.75 43.87 2.21 52.06 21.51 8.46 16.58 4.18 35.6-1.23 52.35 44.26 15.07 73.02 62.52 68.14 108.69 75.9 39.26 152.04 78.45 227.17 119.07-75.77 0.48-151.55 0.05-227.32 0.21-0.02 26.32-0.03 52.65 0 78.98 46.12 0.24 92.26-0.42 138.37 0.31-49.41 27.09-100.36 52.1-149.88 79.18-15.56 29.82-46.49 50.67-79.81 54.4-55.47 0.45-110.97-0.27-166.44 0.33-11.85 21.88-22.78 45.3-21.64 70.88-21.87-6.62-39.91-26.76-44.85-49.08 6.19-6.12 10.87-13.5 15.34-20.91-6.32-0.06-12.63-0.08-18.94-0.04-12 21.35-22.51 44.8-21.48 69.88-5.07-0.85-9.8-2.97-14.31-5.36-5.48-4.39-10.71-9.14-15.11-14.63-3.83-4.68-7.83-9.31-10.46-14.8-5.9-11-9.69-23.2-8.93-35.82-1.69 0.17-5.06 0.52-6.74 0.69-8.88 0.03-17.74-0.23-26.61-0.25-47.56-2.72-91.16-40.98-96.34-88.99-2.82-34.32-0.08-68.83-1.5-103.21-25.83 28.98-70.76 53.74-108.54 32.26-11.5-5.99-25.97-21.71-14.81-34.49 15.3-14.09 36.3-19.19 55.84-24.39-22.22-4.02-44.46-11.58-62.34-25.77-20.36-14.99-31.42-41.93-26.8-66.83 6.45-20.51 32.53-15.17 47.79-9.12 39.32 13.89 74.36 37.29 109.13 59.82 0.22-31.62-0.16-63.24 0.12-94.86 4.98-47.82 46.3-88.64 94.41-91.94 84.53-0.68 169.09 0.07 253.63-0.35-9.16-3.14-17.85-7.78-25.79-13.27-7.83-5.32-3.5-17.94 4.57-20.76 27.76-18.88 65.07-11.14 91.05 7.23-6.92-11.86-15.97-27.78-7.75-40.92m-383.1 172.84c-0.17 60.32-0.12 120.65-0.02 180.98-0.16 19.96-0.09 39.93-0.09 59.89-0.24 40.7 38.08 77.73 79.07 74.12-6.34-13.88 2.37-29.42-5.24-42.83-2.44-9.7-2.48-20.15-0.68-29.94 8.32-23.86 32.98-34.24 52.88-46.47 22.54-10.59 45.77-23.33 60.85-43.92-10.9 36.12-47.73 53.78-74.84 76.17-11.54 9.06-24.27 21.9-22.58 37.87 19.74-25.38 51.15-38.66 80.88-48.58-21.59 17.13-45.11 32.89-61.33 55.64-9.27 13.11-9.93 32.4 2.23 44.07 8.99-47.32 52.77-75.73 92.62-96.2-29.15 30.82-62.99 61.87-73.37 104.67-2.46 16.44-3.62 34.44 4.31 49.59 11.44-62.26 68.07-101.32 96.02-155.28 13.43-23.48 20.67-51.28 13.29-78.06 12.06 29.84 4.71 64.48-7.43 93.31-11.81 28.19-28.69 53.88-45.03 79.6 46.14 0.77 92.3 0.21 138.46 0.28 22.63 0.19 45.27-0.02 67.91 0.15 38.55 2.06 74.56-31.03 76.97-69.27 0.03-81.91 0.1-163.83-0.04-245.74 2.41-39.9-31.81-75.84-71.04-78.12-109.92 0.1-219.84 0.04-329.76 0.04-40.32 0.23-76.33 37.62-74.04 78.03m502.04 29.88c-0.06 4.32-0.08 8.64-0.07 12.97-0.13 7.99-0.08 15.99 0.07 23.99-0.31 14.71-0.1 29.42-0.12 44.14 51.4-0.44 102.86 0.88 154.23-0.66-51.57-26.44-102.74-53.63-154.11-80.44m-0.13 194.11c-0.01 1.67-0.01 3.34-0.01 5.01 0.04 3.04 0.02 6.03 0.11 9.1-0.39 8.78-1.36 17.53-2.85 26.19 25.53-13.14 50.9-26.64 76.39-39.83-24.52-1.2-49.1-0.14-73.64-0.47m-303.12 119.51c-0.7 10.91 1.11 21.73 5.92 31.59 1.18-11.18 5.9-21.39 9.49-31.9-3.85 0.07-11.56 0.23-15.41 0.31z"/><path d="m193.09 184.02c-2.29-40.41 33.72-77.8 74.04-78.03 109.92 0 219.84 0.06 329.76-0.04 39.23 2.28 73.45 38.22 71.04 78.12-16.53-24.65-44.92-41.9-75.1-40.99-108.25-0.22-216.52 0.02-324.77-0.11-30.19-1.18-58.27 16.72-74.97 41.05z" fill="#84d9f4"/><path d="m193.09 184.02c16.7-24.33 44.78-42.23 74.97-41.05 108.25 0.13 216.52-0.11 324.77 0.11 30.18-0.91 58.57 16.34 75.1 40.99 0.14 81.91 0.07 163.83 0.04 245.74-2.41 38.24-38.42 71.33-76.97 69.27-22.64-0.17-45.28 0.04-67.91-0.15-21.46-36.24-57.66-59.61-93.43-79.88 12.14-28.83 19.49-63.47 7.43-93.31 7.38 26.78 0.14 54.58-13.29 78.06-27.95 53.96-84.58 93.02-96.02 155.28-7.93-15.15-6.77-33.15-4.31-49.59 10.38-42.8 44.22-73.85 73.37-104.67-39.85 20.47-83.63 48.88-92.62 96.2-12.16-11.67-11.5-30.96-2.23-44.07 16.22-22.75 39.74-38.51 61.33-55.64-29.73 9.92-61.14 23.2-80.88 48.58-1.69-15.97 11.04-28.81 22.58-37.87 27.11-22.39 63.94-40.05 74.84-76.17-15.08 20.59-38.31 33.33-60.85 43.92-40.99-10.83-83.58-15.39-125.94-14.77-0.1-60.33-0.15-120.66 0.02-180.98m310.93 73c-33.86 24.2-42.1 75.7-20.93 110.87 15.53 27.43 47.06 45.46 78.74 43.2 41.8-0.01 80.46-35.55 82.93-77.41 14.32-48.06-23.55-102.32-73.7-103.83-25.19-1.5-50.07 8.58-67.04 27.17m-33.79 141.27c-11.33 1.01-12.97 14.82-6.37 21.87 14.64 16.79 39.31 26.7 61.29 21.19 9.93-2.43 9.58-15.71 3.52-22.01-14.55-15.78-37.24-23.45-58.44-21.05z" fill="#00adee"/><path d="m695.13 213.9c51.37 26.81 102.54 54 154.11 80.44-51.37 1.54-102.83 0.22-154.23 0.66 0.02-14.72-0.19-29.43 0.12-44.14 38.28 9.56 75.85 21.82 113.94 32.1-37.97-18.76-75.8-37.81-114.01-56.09-0.01-4.33 0.01-8.65 0.07-12.97z" fill="#f6921e"/><path d="m695.06 226.87c38.21 18.28 76.04 37.33 114.01 56.09-38.09-10.28-75.66-22.54-113.94-32.1-0.15-8-0.2-16-0.07-23.99z" fill="#fff"/><path d="m504.02 257.02c16.97-18.59 41.85-28.67 67.04-27.17 50.15 1.51 88.02 55.77 73.7 103.83-10.52 34.18-43.83 61.76-80.56 59.29-33.64 0.29-65.74-23.05-75.97-55.09-10.62-27.43-3.01-58.97 15.79-80.86m25.37-1.98-0.18 0.67c-25.65 16.1-38.1 50.95-26.08 79.25 13.76 40.12 67.7 56.68 101.26 30.59l-0.95-0.03c25.03-15.24 35.77-49.8 24.93-76.98-13.12-39.12-64.71-56.9-98.98-33.5z"/><path d="m529.39 255.04c34.27-23.4 85.86-5.62 98.98 33.5 10.84 27.18 0.1 61.74-24.93 76.98-39.49 4.36-79.15-26.92-81.36-66.98-2.1-14.89 2.5-29.01 7.13-42.83l0.18-0.67m33.58 75.88c13.75 21.78 51.28 4.44 43.04-20.38-2.99 11.22-20.65 11.44-22.75-0.13-2.61-7.61 4.61-12.14 10.05-15.56-21.85-10.84-45 16.76-30.34 36.07z" fill="#fff"/><path d="m503.13 334.96c-12.02-28.3 0.43-63.15 26.08-79.25-4.63 13.82-9.23 27.94-7.13 42.83 2.21 40.06 41.87 71.34 81.36 66.98l0.95 0.03c-33.56 26.09-87.5 9.53-101.26-30.59z" fill="#d0d2d3"/><path d="m483.09 367.89c-21.17-35.17-12.93-86.67 20.93-110.87-18.8 21.89-26.41 53.43-15.79 80.86 10.23 32.04 42.33 55.38 75.97 55.09 36.73 2.47 70.04-25.11 80.56-59.29-2.47 41.86-41.13 77.4-82.93 77.41-31.68 2.26-63.21-15.77-78.74-43.2z" fill="#0594c1"/><path d="m562.97 330.92c-14.66-19.31 8.49-46.91 30.34-36.07-5.44 3.42-12.66 7.95-10.05 15.56 2.1 11.57 19.76 11.35 22.75 0.13 8.24 24.82-29.29 42.16-43.04 20.38z"/><path d="m193.07 365c42.36-0.62 84.95 3.94 125.94 14.77-19.9 12.23-44.56 22.61-52.88 46.47-1.8 9.79-1.76 20.24 0.68 29.94 7.61 13.41-1.1 28.95 5.24 42.83-40.99 3.61-79.31-33.42-79.07-74.12 0-19.96-0.07-39.93 0.09-59.89z" fill="#fff"/><path d="m470.23 398.29c21.2-2.4 43.89 5.27 58.44 21.05 6.06 6.3 6.41 19.58-3.52 22.01-21.98 5.51-46.65-4.4-61.29-21.19-6.6-7.05-4.96-20.86 6.37-21.87z"/><path d="m695 408.01c24.54 0.33 49.12-0.73 73.64 0.47-25.49 13.19-50.86 26.69-76.39 39.83 1.49-8.66 2.46-17.41 2.85-26.19 16.88-2.17 33.49-5.83 50.24-8.79-16.79-0.52-33.57-0.36-50.35-0.31 0-1.67 0-3.34 0.01-5.01z" fill="#f6921e"/><path d="m694.99 413.02c16.78-0.05 33.56-0.21 50.35 0.31-16.75 2.96-33.36 6.62-50.24 8.79-0.09-3.07-0.07-6.06-0.11-9.1z" fill="#fff"/><path d="m384.63 498.65c16.34-25.72 33.22-51.41 45.03-79.6 35.77 20.27 71.97 43.64 93.43 79.88-46.16-0.07-92.32 0.49-138.46-0.28z" fill="#fff"/><path d="m189.26 551.17c26.73 1.39 53.43-7.77 74.26-24.4 8.87 0.02 17.73 0.28 26.61 0.25l0.95 0.01c-9.14 11.42-20.27 20.96-32.83 28.46 4.08 23.27-11.83 44.22-31.81 54.05-9.6 5.45-9.46-11.24-12.16-17.45 11.28-4.7 22.03-14 22.8-26.96-16.13 3.36-32.18 7.98-48.87 7.05 0.38-7.01 0.71-14.02 1.05-21.01z" fill="#f6921e"/><path d="m367.16 527.06c6.31-0.04 12.62-0.02 18.94 0.04-4.47 7.41-9.15 14.79-15.34 20.91-3.2 4.54-11.69 7.15-10.47 13.81 4.35 20.96-9.13 42.51-27.87 51.38-3.32-7.27-12.48-17.38-1.05-21.62 4.51 2.39 9.24 4.51 14.31 5.36-1.03-25.08 9.48-48.53 21.48-69.88z" fill="#f6921e"/><path d="m391.88 527.52c3.85-0.08 11.56-0.24 15.41-0.31-3.59 10.51-8.31 20.72-9.49 31.9-4.81-9.86-6.62-20.68-5.92-31.59z" fill="#00adee"/><path d="m296.19 562.03c3.18-0.02 6.42 0.04 9.61 0.12 2.63 5.49 6.63 10.12 10.46 14.8-4.68 4.13-11.29 3.23-17.08 4.23-2.29-6.11-2.55-12.72-2.99-19.15z" fill="#f6921e"/></g></svg>
